<svg width="2139.003906" height="193.894043" viewBox="0 0 2139 193.894" fill="none" xmlns="http://www.w3.org/2000/svg" xmlns:xlink="http://www.w3.org/1999/xlink">
	<desc>
			Created with Pixso.
	</desc>
	<defs/>
	<rect id="Frame 68" rx="-0.500000" width="2137.350342" height="71.000000" transform="translate(0.500000 122.508789) rotate(-3.238179)" fill="#171717" fill-opacity="1.000000"/>
	<path id="Wefo Studio" d="M105.05 137.28C99.06 137.62 95.63 140.72 95.87 144.92C96.11 149.16 99.46 150.92 104.05 151.56L107.2 152C110.72 152.5 113.36 153.18 113.53 156.27C113.71 159.43 111.07 161.17 107.15 161.39C103.2 161.62 99.87 160.22 99.17 156.31L95.99 156.49L96.02 157.03C96.75 161.66 101.15 164.29 107.32 163.94C113.52 163.59 117.04 160.51 116.78 155.89C116.52 151.34 113.01 149.9 108.29 149.23L105.14 148.8C101.67 148.31 99.28 147.45 99.12 144.65C98.96 141.79 101.49 140.04 105.25 139.83C109 139.62 112.02 141.01 112.46 144.87L115.6 144.69L115.57 144.15C114.91 139.57 111.02 136.94 105.05 137.28ZM2.31 143.51L2.34 144.05L9.98 169.04L14.06 168.8L18.78 147.43L19.14 147.41L26.24 168.12L30.34 167.88L35.1 142.19L35.07 141.65L31.91 141.83L28.04 163.65L27.68 163.67L20.44 142.48L16.96 142.68L12.16 164.55L11.8 164.57L5.49 143.33L2.31 143.51ZM53.99 150.5L57.55 150.3L58.45 166.29L61.58 166.12L60.67 150.12L64.91 149.88L64.78 147.56L60.54 147.8L60.36 144.66C60.28 143.22 60.82 142.5 62.27 142.42L64.83 142.28L64.7 139.98L61.59 140.15C58.62 140.32 57.07 141.87 57.24 144.85L57.41 147.98L53.86 148.18L53.99 150.5ZM170.25 159.97L168.79 134.09L165.63 134.27L166.2 144.31L165.84 144.33C164.95 143.03 163.1 141.59 159.63 141.78C154.87 142.05 151.41 145.49 151.77 151.84C152.12 158.16 155.95 161.19 160.72 160.92C164.19 160.73 165.91 159.08 166.67 157.56L167.03 157.53L167.18 160.14L170.25 159.97ZM173.32 134.3L173.53 138.08L176.78 137.89L176.57 134.12L173.32 134.3ZM117.74 144.57L117.87 146.89L121.52 146.68L122.2 158.68C122.35 161.34 123.94 162.59 126.61 162.44L129.69 162.26L129.55 159.82L127.05 159.96C125.9 160.03 125.4 159.48 125.34 158.45L124.67 146.5L128.89 146.26L128.76 143.94L124.53 144.18L124.25 139.13L121.1 139.31L121.39 144.36L117.74 144.57ZM44.42 148.28C39.05 148.59 35.84 152.14 36.19 158.36C36.54 164.59 40.15 167.76 45.52 167.46C51 167.15 52.86 163.65 53.13 161.38L53.1 160.84L50.28 161C50.09 162.78 48.71 164.88 45.37 165.07C41.85 165.27 39.6 162.89 39.3 158.87L53.34 158.07L53.26 156.6C52.95 151.21 49.83 147.98 44.42 148.28ZM74.76 146.57C69.29 146.88 65.79 150.5 66.13 156.68C66.48 162.85 70.38 166.05 75.84 165.74C81.31 165.43 84.81 161.81 84.47 155.64C84.12 149.46 80.22 146.26 74.76 146.57ZM189.52 140.07C184.06 140.38 180.55 144.01 180.9 150.19C181.25 156.35 185.14 159.56 190.61 159.25C196.07 158.94 199.58 155.32 199.23 149.15C198.88 142.97 194.99 139.76 189.52 140.07ZM148.83 161.18L147.8 142.87L144.63 143.05L145.23 153.61C145.45 157.42 143.06 159.43 140.18 159.6C137.65 159.74 135.87 158.56 135.7 155.68L135.02 143.59L131.86 143.77L132.55 156.08C132.79 160.28 135.58 162.34 139.57 162.12C143.27 161.91 144.69 159.99 145.25 158.78L145.61 158.77L145.76 161.35L148.83 161.18ZM173.77 141.4L174.81 159.71L177.97 159.53L176.94 141.22L173.77 141.4ZM50.17 155.94L39.23 156.56C39.29 153.24 41.09 150.87 44.54 150.67C48.06 150.47 49.95 152.6 50.17 155.94ZM75.7 163.28C72.14 163.48 69.61 161.14 69.35 156.5C69.09 151.85 71.34 149.23 74.9 149.03C78.45 148.83 80.99 151.17 81.25 155.83C81.51 160.46 79.26 163.08 75.7 163.28ZM190.47 156.79C186.91 156.99 184.38 154.64 184.12 150.01C183.85 145.35 186.1 142.74 189.66 142.53C193.22 142.33 195.75 144.68 196.01 149.33C196.28 153.97 194.03 156.59 190.47 156.79ZM160.42 144.24C163.91 144.05 166.42 146.43 166.68 150.99C166.94 155.54 164.71 158.19 161.22 158.39C157.74 158.58 155.22 156.2 154.96 151.66C154.71 147.09 156.94 144.44 160.42 144.24Z" fill="#535353" fill-opacity="1.000000" fill-rule="evenodd"/>
	<rect id="Rectangle 147" x="257.625000" y="143.490723" width="19.000000" height="19.000000" transform="rotate(-48.2382 257.625000 143.490723)" fill="#535353" fill-opacity="1.000000"/>
	<path id="Wefo Studio" d="M431.51 118.79C424.22 119.21 419.5 124.41 419.98 132.86C420.45 141.3 425.73 145.95 433.03 145.53C440.3 145.12 445.02 139.91 444.54 131.47C444.07 123.02 438.79 118.38 431.51 118.79ZM572.29 110.83C564.99 111.24 560.27 116.45 560.75 124.89C561.23 133.34 566.5 137.98 573.8 137.57C581.08 137.16 585.79 131.95 585.32 123.5C584.84 115.06 579.56 110.42 572.29 110.83ZM465.61 116.88C459.63 117.22 456.2 120.32 456.44 124.52C456.68 128.76 460.02 130.52 464.62 131.16L467.76 131.6C471.29 132.1 473.92 132.78 474.1 135.87C474.28 139.03 471.63 140.77 467.72 140.99C463.76 141.22 460.44 139.82 459.73 135.91L456.55 136.09L456.58 136.63C457.31 141.26 461.71 143.89 467.88 143.54C474.08 143.19 477.6 140.11 477.34 135.49C477.08 130.94 473.57 129.5 468.85 128.83L465.71 128.4C462.23 127.91 459.84 127.05 459.68 124.25C459.52 121.39 462.06 119.64 465.81 119.43C469.57 119.22 472.59 120.62 473.02 124.47L476.16 124.29L476.13 123.75C475.48 119.17 471.58 116.54 465.61 116.88ZM341.64 124.31L341.67 124.85L349.3 149.84L353.38 149.61L358.11 128.23L358.46 128.21L365.57 148.92L369.67 148.69L374.43 123L374.4 122.46L371.24 122.64L367.37 144.45L367.01 144.47L359.77 123.28L356.29 123.48L351.48 145.35L351.12 145.37L344.82 124.13L341.64 124.31ZM377.73 122.27L379.2 148.15L397.69 147.1L397.54 144.48L382.34 145.34L381.81 136.01L394.86 135.27L394.71 132.65L381.66 133.39L381.17 124.71L396.01 123.87L395.87 121.24L377.73 122.27ZM399.93 121.01L401.4 146.89L404.69 146.7L404.03 135.17L416.78 134.45L416.63 131.82L403.89 132.54L403.37 123.45L417.71 122.64L417.56 120.01L399.93 121.01ZM477.21 116.64L477.36 119.28L486.7 118.75L488.02 141.99L491.32 141.8L490.01 118.57L499.35 118.04L499.21 115.4L477.21 116.64ZM501.95 115.24L502.88 131.58C503.23 137.88 507 141.35 513.67 140.97C520.37 140.59 523.67 136.73 523.31 130.42L522.39 114.08L519.1 114.27L520.03 130.73C520.3 135.62 517.92 138.06 513.52 138.31C509.11 138.56 506.47 136.4 506.19 131.51L505.26 115.05L501.95 115.24ZM527.46 113.8L528.92 139.67L537.96 139.16C545.44 138.74 550.05 133.54 549.59 125.52C549.14 117.51 543.97 112.86 536.5 113.29L527.46 113.8ZM552.78 112.36L554.25 138.24L557.53 138.06L556.07 112.18L552.78 112.36ZM432.87 142.87C427.41 143.18 423.67 139.43 423.28 132.67C422.9 125.91 426.2 121.76 431.66 121.45C437.13 121.14 440.85 124.9 441.24 131.66C441.62 138.41 438.34 142.56 432.87 142.87ZM573.65 134.91C568.19 135.22 564.44 131.46 564.06 124.71C563.67 117.95 566.97 113.8 572.44 113.49C577.9 113.18 581.63 116.93 582.01 123.69C582.39 130.45 579.11 134.6 573.65 134.91ZM530.89 116.23L536.59 115.91C542.2 115.59 545.92 119.24 546.29 125.71C546.65 132.18 543.37 136.23 537.76 136.54L532.06 136.87L530.89 116.23Z" fill="#535353" fill-opacity="1.000000" fill-rule="evenodd"/>
	<rect id="Rectangle 148" x="644.875000" y="121.581055" width="19.000000" height="19.000000" transform="rotate(-48.2382 644.875000 121.581055)" fill="#535353" fill-opacity="1.000000"/>
	<path id="Wefo Studio" d="M818.76 96.88C811.47 97.29 806.75 102.5 807.23 110.95C807.7 119.4 812.98 124.04 820.28 123.62C827.55 123.21 832.27 118.01 831.79 109.56C831.32 101.11 826.04 96.47 818.76 96.88ZM959.54 88.92C952.24 89.33 947.52 94.54 948 102.98C948.48 111.43 953.75 116.07 961.05 115.66C968.33 115.25 973.04 110.04 972.57 101.59C972.09 93.15 966.81 88.51 959.54 88.92ZM852.86 94.97C846.88 95.31 843.45 98.41 843.69 102.61C843.93 106.85 847.27 108.61 851.87 109.25L855.01 109.69C858.54 110.19 861.17 110.87 861.35 113.96C861.53 117.13 858.88 118.86 854.97 119.08C851.01 119.31 847.69 117.91 846.98 114L843.8 114.18L843.83 114.72C844.56 119.35 848.96 121.98 855.13 121.63C861.33 121.28 864.85 118.2 864.59 113.58C864.33 109.03 860.82 107.59 856.1 106.92L852.96 106.49C849.48 106 847.09 105.14 846.93 102.34C846.77 99.48 849.31 97.73 853.06 97.52C856.82 97.31 859.84 98.7 860.27 102.56L863.41 102.38L863.38 101.84C862.73 97.26 858.83 94.63 852.86 94.97ZM728.89 102.4L728.92 102.94L736.55 127.93L740.63 127.7L745.36 106.32L745.71 106.3L752.82 127.01L756.92 126.78L761.68 101.09L761.65 100.55L758.49 100.73L754.62 122.54L754.26 122.56L747.02 101.37L743.54 101.57L738.73 123.44L738.37 123.46L732.07 102.22L728.89 102.4ZM764.98 100.36L766.45 126.24L784.94 125.19L784.79 122.57L769.59 123.43L769.06 114.1L782.11 113.36L781.96 110.74L768.91 111.48L768.42 102.8L783.26 101.96L783.12 99.33L764.98 100.36ZM787.18 99.1L788.65 124.98L791.94 124.79L791.28 113.26L804.03 112.54L803.88 109.91L791.14 110.63L790.62 101.54L804.96 100.73L804.81 98.1L787.18 99.1ZM864.46 94.73L864.61 97.37L873.95 96.84L875.27 120.08L878.57 119.89L877.26 96.66L886.6 96.13L886.46 93.48L864.46 94.73ZM889.2 93.33L890.13 109.67C890.48 115.97 894.25 119.44 900.92 119.06C907.62 118.68 910.92 114.82 910.56 108.51L909.64 92.17L906.35 92.36L907.28 108.82C907.55 113.71 905.17 116.15 900.77 116.4C896.36 116.65 893.72 114.49 893.44 109.6L892.51 93.14L889.2 93.33ZM914.71 91.89L916.17 117.77L925.21 117.25C932.69 116.83 937.3 111.63 936.84 103.62C936.39 95.6 931.22 90.95 923.75 91.38L914.71 91.89ZM940.03 90.45L941.5 116.33L944.79 116.15L943.32 90.27L940.03 90.45ZM820.12 120.96C814.66 121.27 810.92 117.52 810.53 110.76C810.15 104 813.45 99.85 818.91 99.54C824.38 99.23 828.1 102.99 828.49 109.75C828.87 116.5 825.59 120.65 820.12 120.96ZM960.9 113C955.44 113.31 951.69 109.55 951.31 102.8C950.92 96.04 954.22 91.89 959.69 91.58C965.15 91.27 968.88 95.02 969.26 101.78C969.64 108.54 966.36 112.69 960.9 113ZM918.14 94.32L923.84 94C929.45 93.68 933.17 97.33 933.54 103.8C933.9 110.27 930.62 114.32 925.01 114.63L919.31 114.96L918.14 94.32Z" fill="#535353" fill-opacity="1.000000" fill-rule="evenodd"/>
	<rect id="Rectangle 151" x="1032.126953" y="99.671875" width="19.000000" height="19.000000" transform="rotate(-48.2382 1032.126953 99.671875)" fill="#535353" fill-opacity="1.000000"/>
	<path id="Wefo Studio" d="M1206.02 74.97C1198.72 75.39 1194 80.59 1194.48 89.04C1194.96 97.49 1200.23 102.13 1207.53 101.71C1214.81 101.3 1219.53 96.1 1219.05 87.65C1218.56 79.2 1213.3 74.56 1206.02 74.97ZM1346.79 67.01C1339.49 67.42 1334.78 72.63 1335.25 81.07C1335.73 89.52 1341.01 94.16 1348.3 93.75C1355.58 93.34 1360.3 88.13 1359.82 79.68C1359.34 71.24 1354.07 66.6 1346.79 67.01ZM1240.12 73.06C1234.13 73.4 1230.69 76.5 1230.93 80.7C1231.18 84.94 1234.53 86.7 1239.12 87.34L1242.27 87.78C1245.79 88.28 1248.43 88.96 1248.6 92.05C1248.78 95.22 1246.14 96.95 1242.22 97.17C1238.27 97.4 1234.93 96 1234.24 92.09L1231.05 92.27L1231.07 92.81C1231.81 97.44 1236.22 100.07 1242.38 99.72C1248.57 99.37 1252.1 96.29 1251.84 91.67C1251.59 87.12 1248.07 85.68 1243.35 85.01L1240.21 84.58C1236.74 84.09 1234.35 83.23 1234.18 80.43C1234.03 77.57 1236.56 75.82 1240.31 75.61C1244.06 75.4 1247.09 76.8 1247.52 80.65L1250.67 80.47L1250.64 79.93C1249.98 75.35 1246.07 72.72 1240.12 73.06ZM1116.14 80.49L1116.17 81.03L1123.81 106.02L1127.89 105.79L1132.61 84.41L1132.97 84.39L1140.06 105.1L1144.17 104.87L1148.93 79.18L1148.91 78.64L1145.74 78.82L1141.88 100.63L1141.52 100.65L1134.28 79.46L1130.79 79.66L1125.99 101.53L1125.63 101.55L1119.32 80.31L1116.14 80.49ZM1152.24 78.45L1153.69 104.33L1172.18 103.28L1172.05 100.66L1156.84 101.52L1156.31 92.19L1169.36 91.45L1169.21 88.83L1156.17 89.57L1155.67 80.89L1170.52 80.05L1170.37 77.42L1152.24 78.45ZM1174.43 77.19L1175.9 103.07L1179.18 102.89L1178.54 91.35L1191.28 90.63L1191.13 88L1178.39 88.72L1177.88 79.63L1192.22 78.82L1192.06 76.19L1174.43 77.19ZM1251.71 72.82L1251.86 75.46L1261.21 74.93L1262.52 98.17L1265.82 97.98L1264.51 74.75L1273.86 74.22L1273.71 71.58L1251.71 72.82ZM1276.46 71.42L1277.38 87.76C1277.74 94.06 1281.5 97.53 1288.17 97.15C1294.87 96.77 1298.17 92.91 1297.81 86.6L1296.89 70.26L1293.6 70.45L1294.53 86.91C1294.81 91.8 1292.42 94.24 1288.02 94.49C1283.62 94.74 1280.97 92.58 1280.68 87.69L1279.76 71.23L1276.46 71.42ZM1301.96 69.98L1303.43 95.86L1312.47 95.34C1319.94 94.92 1324.55 89.72 1324.1 81.71C1323.64 73.69 1318.48 69.04 1311 69.47L1301.96 69.98ZM1327.29 68.54L1328.75 94.42L1332.04 94.24L1330.58 68.36L1327.29 68.54ZM1207.38 99.05C1201.92 99.36 1198.17 95.61 1197.79 88.85C1197.41 82.09 1200.69 77.94 1206.17 77.63C1211.63 77.32 1215.36 81.08 1215.74 87.84C1216.12 94.59 1212.84 98.75 1207.38 99.05ZM1348.15 91.09C1342.69 91.4 1338.94 87.64 1338.56 80.89C1338.18 74.13 1341.48 69.98 1346.94 69.67C1352.4 69.36 1356.13 73.11 1356.51 79.87C1356.9 86.63 1353.62 90.78 1348.15 91.09ZM1305.4 72.42L1311.1 72.09C1316.7 71.78 1320.42 75.42 1320.79 81.89C1321.16 88.36 1317.87 92.41 1312.26 92.72L1306.56 93.05L1305.4 72.42Z" fill="#535353" fill-opacity="1.000000" fill-rule="evenodd"/>
	<rect id="Rectangle 149" x="1419.376953" y="77.761719" width="19.000000" height="19.000000" transform="rotate(-48.2382 1419.376953 77.761719)" fill="#535353" fill-opacity="1.000000"/>
	<path id="Wefo Studio" d="M1593.27 53.06C1585.97 53.48 1581.25 58.68 1581.73 67.13C1582.21 75.58 1587.49 80.22 1594.78 79.8C1602.06 79.39 1606.78 74.19 1606.3 65.74C1605.82 57.29 1600.55 52.65 1593.27 53.06ZM1734.04 45.1C1726.75 45.51 1722.03 50.72 1722.51 59.16C1722.98 67.61 1728.26 72.25 1735.56 71.84C1742.83 71.43 1747.55 66.22 1747.07 57.77C1746.6 49.33 1741.32 44.69 1734.04 45.1ZM1627.37 51.15C1621.39 51.49 1617.95 54.59 1618.19 58.79C1618.43 63.03 1621.78 64.79 1626.37 65.43L1629.52 65.87C1633.04 66.37 1635.68 67.05 1635.85 70.14C1636.03 73.31 1633.39 75.04 1629.47 75.26C1625.52 75.49 1622.19 74.09 1621.49 70.18L1618.31 70.36L1618.34 70.9C1619.07 75.53 1623.47 78.16 1629.64 77.81C1635.84 77.46 1639.36 74.38 1639.1 69.76C1638.84 65.21 1635.33 63.77 1630.61 63.1L1627.46 62.67C1623.99 62.18 1621.6 61.32 1621.44 58.52C1621.28 55.66 1623.81 53.91 1627.57 53.7C1631.32 53.49 1634.34 54.89 1634.78 58.74L1637.92 58.56L1637.89 58.02C1637.23 53.44 1633.34 50.81 1627.37 51.15ZM1503.4 58.58L1503.43 59.12L1511.06 84.11L1515.14 83.88L1519.86 62.5L1520.22 62.48L1527.32 83.19L1531.42 82.96L1536.19 57.27L1536.16 56.73L1532.99 56.91L1529.13 78.72L1528.77 78.74L1521.53 57.55L1518.04 57.75L1513.24 79.62L1512.88 79.64L1506.58 58.4L1503.4 58.58ZM1539.49 56.54L1540.95 82.42L1559.45 81.37L1559.3 78.75L1544.09 79.61L1543.57 70.28L1556.61 69.54L1556.46 66.92L1543.42 67.66L1542.93 58.98L1557.77 58.14L1557.62 55.51L1539.49 56.54ZM1561.69 55.28L1563.15 81.16L1566.44 80.97L1565.79 69.44L1578.53 68.72L1578.38 66.09L1565.64 66.81L1565.13 57.72L1579.47 56.91L1579.32 54.28L1561.69 55.28ZM1638.97 50.91L1639.11 53.55L1648.46 53.02L1649.77 76.26L1653.08 76.07L1651.77 52.84L1661.11 52.31L1660.96 49.67L1638.97 50.91ZM1663.71 49.51L1664.63 65.85C1664.99 72.15 1668.76 75.62 1675.42 75.24C1682.13 74.86 1685.42 71 1685.07 64.69L1684.14 48.35L1680.85 48.54L1681.78 65C1682.06 69.89 1679.68 72.33 1675.27 72.58C1670.87 72.83 1668.22 70.67 1667.95 65.78L1667.02 49.32L1663.71 49.51ZM1689.21 48.07L1690.68 73.95L1699.72 73.43C1707.19 73.01 1711.8 67.81 1711.35 59.8C1710.9 51.78 1705.73 47.13 1698.25 47.56L1689.21 48.07ZM1714.54 46.63L1716 72.51L1719.29 72.33L1717.83 46.45L1714.54 46.63ZM1594.63 77.14C1589.17 77.45 1585.42 73.7 1585.04 66.94C1584.66 60.18 1587.96 56.03 1593.42 55.72C1598.88 55.41 1602.61 59.17 1602.99 65.93C1603.38 72.68 1600.09 76.84 1594.63 77.14ZM1735.41 69.18C1729.94 69.49 1726.2 65.73 1725.81 58.98C1725.43 52.22 1728.73 48.07 1734.19 47.76C1739.66 47.45 1743.38 51.2 1743.77 57.96C1744.15 64.72 1740.87 68.87 1735.41 69.18ZM1692.65 50.5L1698.35 50.18C1703.95 49.87 1707.68 53.51 1708.04 59.98C1708.41 66.45 1705.12 70.5 1699.51 70.81L1693.82 71.14L1692.65 50.5Z" fill="#535353" fill-opacity="1.000000" fill-rule="evenodd"/>
	<rect id="Rectangle 150" x="1806.628906" y="55.852539" width="19.000000" height="19.000000" transform="rotate(-48.2382 1806.628906 55.852539)" fill="#535353" fill-opacity="1.000000"/>
	<path id="Wefo Studio" d="M1980.52 31.15C1973.22 31.57 1968.5 36.77 1968.98 45.22C1969.46 53.67 1974.74 58.31 1982.03 57.89C1989.31 57.48 1994.03 52.28 1993.55 43.83C1993.07 35.38 1987.8 30.74 1980.52 31.15ZM2121.29 23.19C2114 23.6 2109.28 28.81 2109.76 37.26C2110.23 45.7 2115.51 50.34 2122.81 49.93C2130.08 49.52 2134.8 44.31 2134.32 35.87C2133.85 27.42 2128.57 22.78 2121.29 23.19ZM2014.62 29.24C2008.64 29.58 2005.2 32.68 2005.44 36.88C2005.68 41.12 2009.03 42.88 2013.62 43.52L2016.77 43.96C2020.29 44.46 2022.93 45.14 2023.1 48.23C2023.28 51.4 2020.64 53.13 2016.72 53.35C2012.77 53.58 2009.44 52.18 2008.74 48.27L2005.56 48.45L2005.59 48.99C2006.32 53.62 2010.72 56.25 2016.89 55.9C2023.09 55.55 2026.61 52.47 2026.35 47.85C2026.09 43.3 2022.58 41.86 2017.86 41.19L2014.71 40.76C2011.24 40.27 2008.85 39.41 2008.69 36.61C2008.53 33.75 2011.06 32 2014.82 31.79C2018.57 31.58 2021.59 32.98 2022.03 36.83L2025.17 36.65L2025.14 36.11C2024.48 31.53 2020.59 28.9 2014.62 29.24ZM1890.65 36.67L1890.68 37.21L1898.31 62.2L1902.39 61.97L1907.11 40.59L1907.47 40.57L1914.57 61.28L1918.67 61.05L1923.44 35.36L1923.41 34.82L1920.24 35L1916.38 56.81L1916.02 56.83L1908.78 35.65L1905.29 35.84L1900.49 57.71L1900.13 57.73L1893.83 36.49L1890.65 36.67ZM1926.74 34.63L1928.2 60.51L1946.7 59.46L1946.55 56.84L1931.34 57.7L1930.82 48.37L1943.86 47.63L1943.71 45.01L1930.67 45.75L1930.18 37.07L1945.02 36.23L1944.87 33.6L1926.74 34.63ZM1948.94 33.37L1950.4 59.25L1953.69 59.07L1953.04 47.53L1965.78 46.81L1965.63 44.18L1952.89 44.9L1952.38 35.81L1966.72 35L1966.57 32.38L1948.94 33.37ZM2026.22 29L2026.36 31.64L2035.71 31.11L2037.02 54.35L2040.33 54.16L2039.02 30.93L2048.36 30.4L2048.21 27.76L2026.22 29ZM2050.96 27.6L2051.87 43.94C2052.24 50.24 2056.01 53.71 2062.67 53.33C2069.37 52.95 2072.67 49.09 2072.32 42.78L2071.38 26.44L2068.1 26.63L2069.03 43.09C2069.31 47.98 2066.93 50.42 2062.52 50.67C2058.12 50.92 2055.47 48.76 2055.2 43.88L2054.27 27.41L2050.96 27.6ZM2076.46 26.16L2077.93 52.04L2086.97 51.53C2094.44 51.1 2099.05 45.9 2098.6 37.89C2098.14 29.87 2092.98 25.22 2085.5 25.65L2076.46 26.16ZM2101.79 24.73L2103.25 50.6L2106.54 50.42L2105.08 24.54L2101.79 24.73ZM1981.88 55.24C1976.42 55.54 1972.67 51.79 1972.29 45.03C1971.91 38.28 1975.21 34.12 1980.67 33.81C1986.13 33.5 1989.86 37.26 1990.24 44.02C1990.63 50.77 1987.34 54.93 1981.88 55.24ZM2122.65 47.27C2117.19 47.58 2113.45 43.83 2113.06 37.07C2112.68 30.31 2115.98 26.16 2121.44 25.85C2126.9 25.54 2130.62 29.3 2131.02 36.05C2131.39 42.81 2128.12 46.96 2122.65 47.27ZM2079.89 28.6L2085.6 28.27C2091.2 27.96 2094.93 31.6 2095.29 38.07C2095.65 44.54 2092.37 48.59 2086.76 48.9L2081.07 49.23L2079.89 28.6Z" fill="#535353" fill-opacity="1.000000" fill-rule="evenodd"/>
	<rect id="Frame 67" rx="-0.500000" width="2089.350342" height="71.000000" transform="translate(10.777344 0.500000) rotate(2.991567)" fill="#4034EB" fill-opacity="1.000000"/>
	<path id="Wefo Studio" d="M113.05 26.58C107.06 26.27 103.32 28.97 103.1 33.18C102.88 37.42 106.01 39.53 110.51 40.67L113.59 41.44C117.04 42.33 119.59 43.29 119.42 46.38C119.26 49.54 116.44 50.98 112.52 50.78C108.57 50.57 105.42 48.82 105.14 44.86L101.96 44.69L101.93 45.23C102.15 49.91 106.24 53.01 112.41 53.33C118.61 53.66 122.45 50.97 122.69 46.35C122.93 41.8 119.6 39.99 114.97 38.81L111.89 38.04C108.49 37.18 106.21 36.06 106.36 33.26C106.51 30.4 109.21 28.94 112.97 29.14C116.73 29.33 119.58 31.05 119.59 34.93L122.74 35.09L122.76 34.55C122.61 29.93 119.02 26.89 113.05 26.58ZM10.24 21.62L10.21 22.16L15.09 47.83L19.17 48.04L26.19 27.3L26.55 27.32L31.36 48.68L35.46 48.9L42.98 23.87L43.01 23.34L39.85 23.17L33.64 44.44L33.28 44.42L28.38 22.57L24.89 22.39L17.75 43.61L17.39 43.59L13.42 21.79L10.24 21.62ZM60.85 34.18L64.41 34.37L63.58 50.37L66.71 50.53L67.54 34.53L71.78 34.75L71.91 32.43L67.66 32.21L67.83 29.07C67.9 27.63 68.51 26.98 69.97 27.05L72.52 27.18L72.64 24.88L69.53 24.72C66.57 24.57 64.85 25.94 64.7 28.92L64.54 32.05L60.98 31.86L60.85 34.18ZM175.41 56.21L176.76 30.32L173.6 30.16L173.07 40.21L172.71 40.19C171.97 38.8 170.29 37.16 166.82 36.98C162.06 36.73 158.24 39.78 157.91 46.12C157.58 52.45 161.06 55.87 165.82 56.12C169.29 56.3 171.19 54.85 172.11 53.42L172.47 53.44L172.33 56.05L175.41 56.21ZM181.24 31.03L181.04 34.8L184.29 34.97L184.49 31.2L181.24 31.03ZM124.88 35.2L124.76 37.52L128.4 37.71L127.78 49.72C127.64 52.38 129.08 53.79 131.76 53.93L134.83 54.09L134.96 51.64L132.46 51.51C131.31 51.45 130.87 50.85 130.92 49.83L131.55 37.88L135.77 38.1L135.89 35.78L131.67 35.56L131.94 30.51L128.79 30.34L128.53 35.39L124.88 35.2ZM51.58 30.94C46.21 30.66 42.64 33.84 42.31 40.06C41.99 46.3 45.23 49.84 50.6 50.12C56.08 50.41 58.31 47.13 58.82 44.91L58.85 44.37L56.03 44.22C55.65 45.97 54.05 47.9 50.71 47.73C47.18 47.54 45.21 44.94 45.35 40.91L59.39 41.64L59.47 40.16C59.75 34.77 57 31.22 51.58 30.94ZM81.93 32.52C76.46 32.24 72.58 35.46 72.26 41.64C71.94 47.81 75.46 51.42 80.93 51.7C86.39 51.99 90.27 48.77 90.59 42.6C90.92 36.42 87.39 32.81 81.93 32.52ZM196.72 38.52C191.26 38.24 187.38 41.46 187.05 47.64C186.73 53.81 190.25 57.42 195.72 57.7C201.18 57.99 205.06 54.77 205.39 48.6C205.71 42.42 202.19 38.81 196.72 38.52ZM153.98 55.09L154.94 36.77L151.78 36.61L151.22 47.18C151.02 50.99 148.43 52.73 145.55 52.58C143.02 52.44 141.38 51.08 141.53 48.2L142.16 36.1L139 35.94L138.35 48.25C138.13 52.46 140.68 54.81 144.67 55.02C148.37 55.21 149.99 53.46 150.68 52.32L151.04 52.34L150.91 54.93L153.98 55.09ZM180.92 38.13L179.96 56.45L183.13 56.61L184.08 38.3L180.92 38.13ZM56.47 39.18L45.52 38.61C45.95 35.31 47.99 33.15 51.44 33.33C54.97 33.51 56.61 35.83 56.47 39.18ZM81.06 49.24C77.5 49.06 75.24 46.45 75.48 41.81C75.72 37.16 78.24 34.8 81.8 34.99C85.36 35.17 87.62 37.78 87.38 42.43C87.13 47.07 84.61 49.43 81.06 49.24ZM195.85 55.24C192.29 55.05 190.03 52.45 190.27 47.81C190.51 43.16 193.03 40.8 196.59 40.99C200.15 41.17 202.41 43.78 202.17 48.43C201.93 53.07 199.41 55.43 195.85 55.24ZM167.34 39.51C170.83 39.69 173.07 42.33 172.83 46.9C172.59 51.45 170.09 53.84 166.6 53.66C163.11 53.48 160.87 50.84 161.11 46.29C161.35 41.72 163.85 39.33 167.34 39.51Z" fill="#FFFFFF" fill-opacity="1.000000" fill-rule="evenodd"/>
	<rect id="Rectangle 147" x="264.050781" y="49.311523" width="19.000000" height="19.000000" transform="rotate(-42.0084 264.050781 49.311523)" fill="#FFFFFF" fill-opacity="1.000000"/>
	<path id="Wefo Studio" d="M439.59 43.63C432.29 43.25 427.04 47.91 426.6 56.36C426.15 64.81 430.89 69.99 438.19 70.38C445.47 70.76 450.73 66.09 451.17 57.64C451.61 49.2 446.87 44.01 439.59 43.63ZM580.4 50.99C573.1 50.61 567.84 55.27 567.4 63.72C566.96 72.17 571.7 77.35 579 77.73C586.28 78.11 591.53 73.45 591.98 65C592.42 56.55 587.68 51.37 580.4 50.99ZM473.7 45.43C467.71 45.12 463.96 47.82 463.74 52.03C463.52 56.27 466.66 58.38 471.16 59.52L474.24 60.29C477.69 61.17 480.23 62.14 480.07 65.23C479.9 68.39 477.09 69.83 473.17 69.63C469.22 69.42 466.06 67.67 465.78 63.71L462.6 63.54L462.57 64.08C462.8 68.76 466.89 71.86 473.06 72.18C479.26 72.5 483.09 69.82 483.33 65.2C483.57 60.65 480.24 58.84 475.62 57.66L472.54 56.89C469.14 56.02 466.86 54.91 467 52.11C467.15 49.25 469.86 47.79 473.62 47.98C477.37 48.18 480.22 49.9 480.24 53.77L483.38 53.94L483.41 53.4C483.26 48.78 479.66 45.74 473.7 45.43ZM349.65 39.36L349.62 39.9L354.5 65.57L358.58 65.78L365.59 45.04L365.95 45.06L370.77 66.42L374.86 66.63L382.39 41.61L382.42 41.07L379.26 40.91L373.04 62.18L372.68 62.16L367.79 40.31L364.3 40.13L357.15 61.35L356.79 61.33L352.83 39.53L349.65 39.36ZM385.75 41.25L384.4 67.13L402.89 68.1L403.03 65.47L387.82 64.68L388.31 55.35L401.36 56.03L401.5 53.41L388.45 52.73L388.9 44.04L403.75 44.82L403.89 42.19L385.75 41.25ZM407.96 42.41L406.6 68.29L409.89 68.46L410.5 56.92L423.24 57.59L423.38 54.97L410.63 54.3L411.11 45.2L425.45 45.95L425.59 43.33L407.96 42.41ZM485.25 46.45L485.11 49.09L494.46 49.58L493.24 72.82L496.55 72.99L497.77 49.75L507.11 50.24L507.25 47.6L485.25 46.45ZM510 47.74L509.15 64.08C508.82 70.39 512.18 74.24 518.85 74.59C525.56 74.94 529.25 71.46 529.58 65.15L530.44 48.81L527.15 48.64L526.29 65.1C526.03 69.99 523.39 72.16 518.99 71.93C514.59 71.7 512.19 69.27 512.45 64.38L513.31 47.91L510 47.74ZM535.51 49.07L534.16 74.96L543.2 75.43C550.68 75.82 555.82 71.15 556.24 63.13C556.66 55.12 552.03 49.94 544.55 49.55L535.51 49.07ZM560.84 50.4L559.49 76.28L562.78 76.45L564.13 50.57L560.84 50.4ZM438.33 67.72C432.87 67.43 429.55 63.29 429.9 56.53C430.26 49.77 433.99 46 439.45 46.29C444.92 46.57 448.21 50.71 447.86 57.47C447.51 64.23 443.8 68 438.33 67.72ZM579.14 75.07C573.67 74.79 570.36 70.65 570.71 63.89C571.06 57.13 574.79 53.36 580.26 53.65C585.72 53.93 589.02 58.07 588.67 64.83C588.31 71.59 584.6 75.36 579.14 75.07ZM538.66 51.87L544.36 52.17C549.97 52.46 553.27 56.49 552.94 62.96C552.6 69.43 548.89 73.1 543.28 72.8L537.58 72.51L538.66 51.87Z" fill="#FFFFFF" fill-opacity="1.000000" fill-rule="evenodd"/>
	<rect id="Rectangle 148" x="651.392578" y="69.553711" width="19.000000" height="19.000000" transform="rotate(-42.0084 651.392578 69.553711)" fill="#FFFFFF" fill-opacity="1.000000"/>
	<path id="Wefo Studio" d="M826.93 63.87C819.63 63.49 814.38 68.15 813.94 76.6C813.5 85.05 818.24 90.24 825.53 90.62C832.81 91 838.07 86.33 838.51 77.89C838.95 69.44 834.21 64.25 826.93 63.87ZM967.74 71.23C960.44 70.85 955.19 75.51 954.74 83.96C954.3 92.41 959.04 97.6 966.34 97.98C973.62 98.36 978.88 93.69 979.32 85.24C979.76 76.8 975.02 71.61 967.74 71.23ZM861.04 65.67C855.05 65.36 851.31 68.06 851.09 72.27C850.87 76.51 854 78.62 858.5 79.76L861.58 80.53C865.03 81.42 867.57 82.38 867.41 85.47C867.25 88.63 864.43 90.07 860.51 89.87C856.56 89.66 853.41 87.91 853.13 83.95L849.94 83.78L849.92 84.32C850.14 89 854.23 92.1 860.4 92.42C866.6 92.75 870.43 90.06 870.68 85.44C870.91 80.9 867.58 79.08 862.96 77.9L859.88 77.13C856.48 76.27 854.2 75.16 854.34 72.35C854.49 69.49 857.2 68.03 860.96 68.23C864.72 68.42 867.56 70.14 867.58 74.02L870.72 74.18L870.75 73.64C870.6 69.02 867.01 65.98 861.04 65.67ZM736.99 59.6L736.96 60.14L741.84 85.81L745.92 86.03L752.93 65.28L753.29 65.3L758.11 86.66L762.21 86.88L769.73 61.85L769.76 61.32L766.6 61.15L760.38 82.42L760.02 82.4L755.13 60.55L751.64 60.37L744.49 81.59L744.13 81.57L740.17 59.77L736.99 59.6ZM773.09 61.49L771.74 87.37L790.24 88.34L790.37 85.72L775.17 84.92L775.65 75.59L788.7 76.27L788.84 73.65L775.79 72.97L776.24 64.29L791.09 65.06L791.23 62.44L773.09 61.49ZM795.3 62.65L793.95 88.53L797.24 88.71L797.84 77.17L810.58 77.83L810.72 75.21L797.98 74.54L798.45 65.45L812.8 66.2L812.93 63.57L795.3 62.65ZM872.59 66.69L872.45 69.33L881.8 69.82L880.59 93.06L883.89 93.24L885.11 69.99L894.46 70.48L894.59 67.84L872.59 66.69ZM897.34 67.98L896.49 84.32C896.16 90.63 899.52 94.49 906.19 94.83C912.9 95.18 916.6 91.7 916.93 85.39L917.78 69.05L914.49 68.88L913.63 85.34C913.37 90.23 910.74 92.4 906.33 92.17C901.93 91.94 899.53 89.51 899.79 84.62L900.65 68.16L897.34 67.98ZM922.85 69.32L921.5 95.2L930.54 95.67C938.02 96.06 943.17 91.39 943.58 83.38C944 75.36 939.37 70.18 931.89 69.79L922.85 69.32ZM948.18 70.64L946.83 96.52L950.12 96.7L951.47 70.81L948.18 70.64ZM825.67 87.96C820.21 87.67 816.89 83.53 817.25 76.77C817.6 70.02 821.33 66.25 826.79 66.53C832.26 66.82 835.56 70.95 835.2 77.71C834.85 84.47 831.14 88.24 825.67 87.96ZM966.48 95.32C961.02 95.03 957.7 90.89 958.05 84.13C958.41 77.37 962.14 73.6 967.6 73.89C973.06 74.18 976.36 78.31 976.01 85.07C975.66 91.83 971.94 95.6 966.48 95.32ZM926 72.11L931.7 72.41C937.31 72.7 940.62 76.73 940.28 83.2C939.94 89.68 936.23 93.34 930.62 93.05L924.93 92.75L926 72.11Z" fill="#FFFFFF" fill-opacity="1.000000" fill-rule="evenodd"/>
	<rect id="Rectangle 151" x="1038.734375" y="89.796387" width="19.000000" height="19.000000" transform="rotate(-42.0084 1038.734375 89.796387)" fill="#FFFFFF" fill-opacity="1.000000"/>
	<path id="Wefo Studio" d="M1214.28 84.11C1206.98 83.73 1201.73 88.4 1201.28 96.84C1200.84 105.29 1205.57 110.48 1212.88 110.86C1220.16 111.24 1225.41 106.58 1225.86 98.13C1226.3 89.68 1221.56 84.49 1214.28 84.11ZM1355.08 91.47C1347.79 91.09 1342.53 95.75 1342.09 104.2C1341.65 112.65 1346.39 117.84 1353.69 118.22C1360.97 118.6 1366.22 113.94 1366.66 105.49C1367.1 97.04 1362.36 91.85 1355.08 91.47ZM1248.39 85.91C1242.4 85.6 1238.65 88.31 1238.43 92.51C1238.21 96.76 1241.35 98.87 1245.85 100L1248.92 100.78C1252.37 101.66 1254.92 102.62 1254.76 105.71C1254.59 108.88 1251.78 110.32 1247.86 110.11C1243.9 109.9 1240.75 108.15 1240.47 104.19L1237.29 104.03L1237.26 104.56C1237.49 109.24 1241.57 112.34 1247.74 112.66C1253.94 112.99 1257.78 110.31 1258.02 105.69C1258.26 101.14 1254.93 99.32 1250.31 98.14L1247.23 97.37C1243.82 96.51 1241.54 95.4 1241.68 92.59C1241.84 89.74 1244.55 88.27 1248.31 88.47C1252.06 88.67 1254.91 90.38 1254.92 94.26L1258.06 94.42L1258.1 93.88C1257.93 89.26 1254.35 86.23 1248.39 85.91ZM1124.34 79.85L1124.31 80.38L1129.18 106.05L1133.27 106.27L1140.28 85.53L1140.64 85.55L1145.44 106.9L1149.55 107.12L1157.07 82.1L1157.11 81.56L1153.93 81.39L1147.73 102.66L1147.37 102.64L1142.47 80.79L1138.99 80.61L1131.84 101.83L1131.48 101.81L1127.52 80.01L1124.34 79.85ZM1160.43 81.73L1159.09 107.62L1177.57 108.58L1177.72 105.96L1162.51 105.16L1163 95.83L1176.05 96.52L1176.18 93.89L1163.14 93.21L1163.59 84.53L1178.43 85.3L1178.57 82.68L1160.43 81.73ZM1182.65 82.89L1181.29 108.78L1184.57 108.95L1185.18 97.41L1197.93 98.07L1198.06 95.45L1185.31 94.78L1185.8 85.69L1200.14 86.44L1200.28 83.81L1182.65 82.89ZM1259.93 86.93L1259.8 89.57L1269.15 90.06L1267.93 113.31L1271.24 113.48L1272.44 90.24L1281.8 90.72L1281.93 88.08L1259.93 86.93ZM1284.68 88.23L1283.82 104.57C1283.5 110.87 1286.87 114.73 1293.54 115.08C1300.24 115.43 1303.93 111.94 1304.27 105.63L1305.13 89.29L1301.84 89.12L1300.98 105.59C1300.72 110.48 1298.07 112.65 1293.68 112.42C1289.28 112.19 1286.88 109.75 1287.13 104.86L1287.99 88.4L1284.68 88.23ZM1310.19 89.56L1308.85 115.44L1317.89 115.92C1325.37 116.31 1330.51 111.64 1330.93 103.62C1331.35 95.6 1326.72 90.42 1319.24 90.03L1310.19 89.56ZM1335.53 90.88L1334.18 116.77L1337.47 116.94L1338.82 91.05L1335.53 90.88ZM1213.02 108.2C1207.55 107.92 1204.24 103.78 1204.59 97.02C1204.93 90.26 1208.67 86.49 1214.14 86.77C1219.6 87.06 1222.9 91.2 1222.55 97.96C1222.19 104.71 1218.48 108.49 1213.02 108.2ZM1353.83 115.56C1348.36 115.27 1345.05 111.13 1345.4 104.38C1345.75 97.62 1349.48 93.85 1354.95 94.13C1360.41 94.42 1363.71 98.56 1363.36 105.31C1363 112.07 1359.29 115.84 1353.83 115.56ZM1313.35 92.35L1319.05 92.65C1324.66 92.95 1327.96 96.98 1327.62 103.45C1327.29 109.92 1323.58 113.58 1317.97 113.29L1312.27 112.99L1313.35 92.35Z" fill="#FFFFFF" fill-opacity="1.000000" fill-rule="evenodd"/>
	<rect id="Rectangle 149" x="1426.074219" y="110.039062" width="19.000000" height="19.000000" transform="rotate(-42.0084 1426.074219 110.039062)" fill="#FFFFFF" fill-opacity="1.000000"/>
	<path id="Wefo Studio" d="M1601.62 104.36C1594.32 103.97 1589.07 108.64 1588.63 117.09C1588.18 125.54 1592.92 130.72 1600.22 131.1C1607.5 131.48 1612.76 126.82 1613.2 118.37C1613.64 109.92 1608.9 104.74 1601.62 104.36ZM1742.43 111.71C1735.13 111.33 1729.87 116 1729.43 124.45C1728.99 132.89 1733.73 138.08 1741.03 138.46C1748.31 138.84 1753.56 134.18 1754.01 125.73C1754.45 117.28 1749.71 112.1 1742.43 111.71ZM1635.73 106.16C1629.74 105.84 1625.99 108.55 1625.77 112.76C1625.55 117 1628.69 119.11 1633.19 120.25L1636.27 121.02C1639.72 121.9 1642.26 122.86 1642.1 125.96C1641.93 129.12 1639.12 130.56 1635.2 130.35C1631.25 130.15 1628.09 128.4 1627.81 124.43L1624.63 124.27L1624.6 124.81C1624.83 129.49 1628.92 132.59 1635.09 132.91C1641.29 133.23 1645.12 130.55 1645.36 125.93C1645.6 121.38 1642.27 119.57 1637.65 118.39L1634.57 117.61C1631.17 116.75 1628.89 115.64 1629.03 112.84C1629.18 109.98 1631.89 108.52 1635.65 108.71C1639.4 108.91 1642.25 110.63 1642.27 114.5L1645.41 114.67L1645.44 114.13C1645.29 109.5 1641.69 106.47 1635.73 106.16ZM1511.68 100.09L1511.65 100.63L1516.53 126.3L1520.61 126.51L1527.62 105.77L1527.98 105.79L1532.8 127.15L1536.89 127.36L1544.42 102.34L1544.45 101.8L1541.29 101.64L1535.07 122.9L1534.71 122.89L1529.82 101.04L1526.33 100.85L1519.18 122.07L1518.82 122.06L1514.86 100.25L1511.68 100.09ZM1547.78 101.98L1546.43 127.86L1564.92 128.83L1565.06 126.2L1549.85 125.41L1550.34 116.08L1563.39 116.76L1563.53 114.14L1550.48 113.45L1550.93 104.77L1565.78 105.55L1565.92 102.92L1547.78 101.98ZM1569.99 103.14L1568.63 129.02L1571.92 129.19L1572.53 117.65L1585.27 118.32L1585.41 115.69L1572.66 115.03L1573.14 105.93L1587.48 106.68L1587.62 104.06L1569.99 103.14ZM1647.28 107.17L1647.14 109.82L1656.49 110.31L1655.27 133.55L1658.58 133.72L1659.8 110.48L1669.14 110.97L1669.28 108.32L1647.28 107.17ZM1672.03 108.47L1671.18 124.81C1670.85 131.12 1674.21 134.97 1680.88 135.32C1687.59 135.67 1691.28 132.19 1691.61 125.88L1692.47 109.54L1689.18 109.36L1688.32 125.83C1688.06 130.72 1685.42 132.89 1681.02 132.66C1676.62 132.43 1674.22 130 1674.48 125.11L1675.34 108.64L1672.03 108.47ZM1697.54 109.8L1696.19 135.69L1705.23 136.16C1712.71 136.55 1717.85 131.88 1718.27 123.86C1718.69 115.85 1714.06 110.66 1706.58 110.27L1697.54 109.8ZM1722.87 111.13L1721.52 137.01L1724.81 137.18L1726.16 111.3L1722.87 111.13ZM1600.36 128.44C1594.9 128.16 1591.58 124.02 1591.93 117.26C1592.29 110.5 1596.02 106.73 1601.48 107.02C1606.95 107.3 1610.24 111.44 1609.89 118.2C1609.54 124.96 1605.83 128.73 1600.36 128.44ZM1741.17 135.8C1735.7 135.52 1732.39 131.38 1732.74 124.62C1733.09 117.86 1736.82 114.09 1742.29 114.38C1747.75 114.66 1751.05 118.8 1750.7 125.56C1750.34 132.32 1746.63 136.09 1741.17 135.8ZM1700.69 112.6L1706.39 112.9C1712 113.19 1715.3 117.22 1714.97 123.69C1714.63 130.16 1710.92 133.82 1705.31 133.53L1699.61 133.23L1700.69 112.6Z" fill="#FFFFFF" fill-opacity="1.000000" fill-rule="evenodd"/>
	<rect id="Rectangle 150" x="1813.416016" y="130.281250" width="19.000000" height="19.000000" transform="rotate(-42.0084 1813.416016 130.281250)" fill="#FFFFFF" fill-opacity="1.000000"/>
	<path id="Wefo Studio" d="M2001.83 125.29C1995.84 124.98 1992.1 127.68 1991.88 131.89C1991.65 136.13 1994.79 138.24 1999.29 139.38L2002.37 140.15C2005.82 141.03 2008.36 142 2008.2 145.09C2008.04 148.25 2005.22 149.69 2001.3 149.49C1997.35 149.28 1994.19 147.53 1993.92 143.57L1990.73 143.4L1990.71 143.94C1990.93 148.62 1995.02 151.72 2001.19 152.04C2007.39 152.36 2011.22 149.68 2011.47 145.06C2011.7 140.51 2008.37 138.7 2003.75 137.52L2000.67 136.75C1997.27 135.88 1994.99 134.77 1995.13 131.97C1995.28 129.11 1997.99 127.65 2001.75 127.84C2005.51 128.04 2008.35 129.76 2008.37 133.63L2011.51 133.8L2011.54 133.26C2011.39 128.64 2007.8 125.6 2001.83 125.29ZM1899.02 120.33L1898.99 120.87L1903.87 146.54L1907.95 146.75L1914.96 126.01L1915.32 126.03L1920.14 147.39L1924.24 147.6L1931.76 122.58L1931.79 122.04L1928.63 121.88L1922.41 143.15L1922.05 143.13L1917.16 121.28L1913.67 121.1L1906.52 142.32L1906.16 142.3L1902.2 120.5L1899.02 120.33ZM1949.63 132.89L1953.19 133.08L1952.36 149.07L1955.48 149.24L1956.32 133.24L1960.56 133.46L1960.68 131.14L1956.44 130.92L1956.61 127.77C1956.68 126.34 1957.29 125.68 1958.75 125.76L1961.3 125.89L1961.42 123.59L1958.31 123.43C1955.34 123.27 1953.63 124.65 1953.48 127.63L1953.31 130.76L1949.75 130.57L1949.63 132.89ZM2064.19 154.92L2065.54 129.03L2062.37 128.87L2061.85 138.92L2061.49 138.9C2060.75 137.51 2059.07 135.87 2055.6 135.69C2050.84 135.44 2047.02 138.48 2046.69 144.83C2046.36 151.16 2049.84 154.58 2054.6 154.83C2058.07 155.01 2059.97 153.56 2060.88 152.13L2061.25 152.15L2061.11 154.76L2064.19 154.92ZM2070.02 129.74L2069.82 133.51L2073.07 133.68L2073.27 129.91L2070.02 129.74ZM2013.65 133.91L2013.53 136.23L2017.18 136.42L2016.55 148.43C2016.42 151.09 2017.86 152.5 2020.53 152.64L2023.61 152.8L2023.74 150.35L2021.24 150.22C2020.09 150.16 2019.65 149.56 2019.7 148.54L2020.33 136.58L2024.55 136.8L2024.67 134.49L2020.45 134.27L2020.71 129.21L2017.57 129.05L2017.3 134.1L2013.65 133.91ZM1940.36 129.65C1934.99 129.37 1931.42 132.55 1931.09 138.77C1930.76 145.01 1934 148.55 1939.38 148.83C1944.86 149.11 1947.09 145.84 1947.6 143.62L1947.63 143.08L1944.81 142.93C1944.43 144.67 1942.83 146.61 1939.49 146.44C1935.96 146.25 1933.99 143.64 1934.13 139.61L1948.17 140.35L1948.24 138.87C1948.53 133.48 1945.77 129.93 1940.36 129.65ZM1970.71 131.23C1965.24 130.95 1961.36 134.17 1961.04 140.35C1960.72 146.52 1964.24 150.13 1969.71 150.41C1975.17 150.7 1979.05 147.48 1979.37 141.31C1979.7 135.13 1976.17 131.52 1970.71 131.23ZM2085.5 137.23C2080.03 136.95 2076.14 140.17 2075.83 146.35C2075.51 152.52 2079.03 156.13 2084.5 156.41C2089.96 156.7 2093.84 153.48 2094.17 147.31C2094.49 141.13 2090.96 137.52 2085.5 137.23ZM2042.76 153.8L2043.72 135.48L2040.55 135.32L2040 145.89C2039.8 149.7 2037.21 151.44 2034.33 151.28C2031.8 151.15 2030.15 149.79 2030.31 146.91L2030.94 134.81L2027.77 134.65L2027.13 146.96C2026.91 151.17 2029.46 153.52 2033.45 153.73C2037.15 153.92 2038.77 152.17 2039.46 151.03L2039.82 151.05L2039.69 153.64L2042.76 153.8ZM2069.7 136.84L2068.74 155.16L2071.9 155.32L2072.86 137L2069.7 136.84ZM1945.25 137.89L1934.3 137.32C1934.73 134.02 1936.77 131.86 1940.22 132.04C1943.74 132.22 1945.39 134.54 1945.25 137.89ZM1969.83 147.95C1966.27 147.76 1964.01 145.16 1964.26 140.52C1964.5 135.87 1967.02 133.51 1970.58 133.7C1974.14 133.88 1976.4 136.49 1976.16 141.14C1975.91 145.78 1973.39 148.14 1969.83 147.95ZM2084.62 153.95C2081.07 153.76 2078.81 151.16 2079.05 146.52C2079.29 141.86 2081.81 139.51 2085.37 139.69C2088.93 139.88 2091.19 142.49 2090.95 147.14C2090.71 151.78 2088.18 154.14 2084.62 153.95ZM2056.12 138.22C2059.61 138.4 2061.85 141.04 2061.61 145.61C2061.37 150.16 2058.87 152.55 2055.37 152.37C2051.88 152.18 2049.64 149.54 2049.88 145C2050.12 140.43 2052.62 138.04 2056.12 138.22Z" fill="#FFFFFF" fill-opacity="1.000000" fill-rule="evenodd"/>
</svg>
