<svg width="3360" height="1546" viewBox="0 0 3360 1546" fill="none" xmlns="http://www.w3.org/2000/svg">
<path d="M0 435.548H3224V1135.47H0V435.548Z" fill="url(#paint0_radial_214_7448)"/>
<path d="M805.464 435.548H1140.9V1135.47H805.464V435.548Z" fill="white" fill-opacity="0.2"/>
<path d="M1230.63 435.548H1566.06V1135.47H1230.63V435.548Z" fill="white" fill-opacity="0.2"/>
<path d="M1655.8 435.548H1991.23V1135.47H1655.8V435.548Z" fill="white" fill-opacity="0.2"/>
<path d="M2080.96 435.548H2416.4V1135.47H2080.96V435.548Z" fill="white" fill-opacity="0.2"/>
<path d="M3155.18 1350.81C2931.49 1563.18 2291 1609.42 1724.62 1454.08C1158.23 1298.75 880.423 1000.66 1104.11 788.286C1327.8 575.914 1968.28 529.678 2534.67 685.015C3101.05 840.352 3378.86 1138.44 3155.18 1350.81Z" fill="#4034EB"/>
<path d="M3160.16 789.614C3160.16 1027.07 2458.43 1219.57 1592.79 1219.57C727.157 1219.57 25.4211 1027.07 25.4211 789.614C25.4211 552.154 727.157 359.655 1592.79 359.655C2458.43 359.655 3160.16 552.154 3160.16 789.614Z" fill="url(#paint1_radial_214_7448)"/>
<path d="M3065.55 847.458C3065.55 1019.26 2460.52 1158.54 1714.18 1158.54C967.844 1158.54 362.817 1019.26 362.817 847.458C362.817 675.652 967.844 536.375 1714.18 536.375C2460.52 536.375 3065.55 675.652 3065.55 847.458Z" fill="url(#paint2_radial_214_7448)"/>
<path d="M1101.44 1345.65C918.064 1345.65 769.404 1045.49 769.404 675.21C769.404 304.933 918.064 4.76509 1101.44 4.7651C1284.82 4.7651 1433.48 304.933 1433.48 675.21C1433.48 1045.49 1284.82 1345.65 1101.44 1345.65Z" fill="url(#paint3_radial_214_7448)"/>
<path d="M2670.6 747.086C2670.6 769.725 2087.55 788.078 1368.33 788.078C649.101 788.078 66.0527 769.725 66.0527 747.086C66.0527 724.447 649.101 706.094 1368.33 706.094C2087.55 706.094 2670.6 724.447 2670.6 747.086Z" fill="url(#paint4_radial_214_7448)"/>
<path d="M1162.92 1345.91C1118.74 1345.91 1082.92 1131.52 1082.92 867.047C1082.92 602.576 1118.74 388.18 1162.92 388.18C1207.11 388.18 1242.93 602.576 1242.93 867.047C1242.93 1131.52 1207.11 1345.91 1162.92 1345.91Z" fill="url(#paint5_radial_214_7448)"/>
<path d="M1247.86 931.126C1247.86 909.891 1281.6 892.677 1323.21 892.677H2038C2079.61 892.677 2113.35 909.891 2113.35 931.126C2113.35 952.36 2079.61 969.574 2038 969.574H1323.21C1281.6 969.574 1247.86 952.36 1247.86 931.126Z" fill="url(#paint6_linear_214_7448)" fill-opacity="0.1"/>
<path d="M1247.86 1028.38C1247.86 1007.14 1281.6 989.93 1323.21 989.93H1719.9C1761.51 989.93 1795.25 1007.14 1795.25 1028.38C1795.25 1049.61 1761.51 1066.83 1719.9 1066.83H1323.21C1281.6 1066.83 1247.86 1049.61 1247.86 1028.38Z" fill="url(#paint7_linear_214_7448)" fill-opacity="0.1"/>
<path fill-rule="evenodd" clip-rule="evenodd" d="M2661.72 981.165C2661.72 966.664 2638.34 954.873 2609.59 954.873C2580.84 954.873 2557.46 966.664 2557.46 981.165C2557.46 995.667 2580.84 1007.46 2609.59 1007.46C2638.34 1007.46 2661.72 995.667 2661.72 981.165ZM3023.95 1135.22C3025.5 1135.22 3027 1134.94 3028.18 1134.44C3030.96 1133.29 3031.28 1131.2 3029.16 1129.84L2842.14 1018.26C2841.9 1018.1 2841.57 1017.97 2841.33 1017.85C2838.56 1016.7 2834.4 1016.87 2832.12 1018.26L2703.35 1095.29L2622.38 1046.81C2622.13 1046.65 2621.81 1046.53 2621.56 1046.4C2618.8 1045.25 2614.64 1045.42 2612.36 1046.81L2473.64 1129.8C2472.66 1130.42 2472.09 1131.15 2472.09 1131.94C2472.09 1133.74 2475.03 1135.22 2478.61 1135.22H3023.95Z" fill="url(#paint8_radial_214_7448)"/>
<path d="M1055.03 725.311H3360L3360 1158.43H1055.03V725.311Z" fill="url(#paint9_radial_214_7448)"/>
<path d="M733.865 324.967V324.424H742.37L751.229 344.858H751.938L762.569 324.424H771.038L781.669 344.858H782.378L791.237 324.424H799.671V324.967L787.906 350.463H777.31L767.104 331.024H766.396L756.225 350.463H745.63L733.865 324.967Z" fill="white"/>
<path d="M800.167 341.114C800.167 334.677 807.219 331.35 818.239 331.35C829.225 331.35 835.426 334.749 835.426 340.373V342.163H808.211C808.353 345.563 811.932 347.805 818.204 347.805C824.264 347.805 826.779 346.033 827.311 344.532H834.682V345.074C833.76 347.516 829.473 350.897 818.31 350.897C807.254 350.897 800.167 347.552 800.167 341.114ZM808.317 339.216H827.488C827.417 336.395 824.441 334.406 818.168 334.406C812.002 334.406 808.778 336.449 808.317 339.216Z" fill="white"/>
<path d="M844.396 334.731H837.557V331.784H844.396V329.27C844.396 326.07 848.082 324.424 854.354 324.424H861.264V327.336H856.303C853.823 327.336 852.724 327.968 852.724 329.234V331.784H860.733V334.731H852.724V350.463H844.396V334.731Z" fill="white"/>
<path d="M862.554 341.114C862.554 334.749 870.421 331.35 881.584 331.35C892.711 331.35 900.578 334.749 900.578 341.114C900.578 347.498 892.711 350.897 881.584 350.897C870.421 350.897 862.554 347.498 862.554 341.114ZM871.059 341.114C871.059 345.418 875.241 347.715 881.584 347.715C887.891 347.715 892.073 345.418 892.073 341.114C892.073 336.829 887.891 334.532 881.584 334.532C875.241 334.532 871.059 336.829 871.059 341.114Z" fill="white"/>
<path d="M1005.63 341.809V331.315H1009.22L1016.21 340.089H1016.5L1023.48 331.315H1027.08V341.809H1024.6V333.356H1024.31L1017.57 341.809H1015.13L1008.39 333.356H1008.1V341.809H1005.63Z" fill="white"/>
<path d="M1030.65 338.093C1030.65 335.571 1033.35 334.208 1037.62 334.208C1041.92 334.208 1044.25 335.586 1044.25 337.772V338.37H1033.09C1033.15 340.002 1034.82 341.015 1037.62 341.015C1040.28 341.015 1041.46 340.199 1041.69 339.485H1043.93V339.703C1043.62 340.614 1041.99 341.984 1037.64 341.984C1033.37 341.984 1030.65 340.621 1030.65 338.093ZM1033.14 337.437H1041.83C1041.81 336.081 1040.41 335.178 1037.61 335.178C1034.87 335.178 1033.34 336.096 1033.14 337.437Z" fill="white"/>
<path d="M1047.56 341.809V334.383H1050V335.433H1050.29C1050.78 334.959 1052 334.216 1055 334.216C1058.2 334.216 1060.32 335.112 1060.32 336.817V341.809H1057.8V336.905C1057.8 335.739 1056.45 335.221 1054.4 335.221C1052.07 335.221 1050.08 335.979 1050.08 337.524V341.809H1047.56Z" fill="white"/>
<path d="M1076.79 334.383V341.809H1074.35V340.76H1074.07C1073.57 341.234 1072.35 341.977 1069.41 341.977C1066.24 341.977 1064.13 341.081 1064.13 339.375V334.383H1066.64V339.288C1066.64 340.454 1068 340.971 1070.01 340.971C1072.3 340.971 1074.28 340.213 1074.28 338.668V334.383H1076.79Z" fill="white"/>
<path d="M1088.83 333.035V331.505H1091.41V333.035H1088.83ZM1088.87 341.809V334.383H1091.39V341.809H1088.87Z" fill="white"/>
<path d="M1094.07 335.323V334.383H1096.97V332.336H1099.46V334.383H1102.82V335.323H1099.46V340.17C1099.46 340.585 1099.84 340.818 1100.75 340.818H1102.74V341.809H1100.29C1098.17 341.809 1096.97 341.27 1096.97 340.191V335.323H1094.07Z" fill="white"/>
<path d="M1104.71 338.093C1104.71 335.571 1107.41 334.208 1111.68 334.208C1115.98 334.208 1118.3 335.586 1118.3 337.772V338.37H1107.15C1107.21 340.002 1108.88 341.015 1111.68 341.015C1114.33 341.015 1115.52 340.199 1115.75 339.485H1117.99V339.703C1117.68 340.614 1116.05 341.984 1111.69 341.984C1107.42 341.984 1104.71 340.621 1104.71 338.093ZM1107.19 337.437H1115.89C1115.86 336.081 1114.46 335.178 1111.66 335.178C1108.92 335.178 1107.39 336.096 1107.19 337.437Z" fill="white"/>
<path d="M1121.62 341.809V334.383H1124.03V335.323H1124.32C1124.92 334.806 1125.99 334.216 1128.63 334.216C1131.14 334.216 1132.36 334.886 1132.79 335.527H1133.07C1133.74 334.864 1135.06 334.216 1137.76 334.216C1140.41 334.216 1142.61 334.966 1142.61 336.701V341.809H1140.11V336.788C1140.11 335.826 1139.08 335.221 1137.11 335.221C1134.91 335.221 1133.36 335.943 1133.36 337.393V341.809H1130.86V336.788C1130.86 335.826 1129.87 335.221 1127.9 335.221C1125.66 335.221 1124.1 335.943 1124.1 337.393V341.809H1121.62Z" fill="white"/>
<path d="M1234.13 341.809V331.315H1237.72L1244.71 340.089H1245L1251.98 331.315H1255.58V341.809H1253.1V333.356H1252.81L1246.07 341.809H1243.63L1236.89 333.356H1236.6V341.809H1234.13Z" fill="white"/>
<path d="M1259.15 338.093C1259.15 335.571 1261.85 334.208 1266.12 334.208C1270.42 334.208 1272.75 335.586 1272.75 337.772V338.37H1261.6C1261.65 340.002 1263.32 341.015 1266.12 341.015C1268.78 341.015 1269.96 340.199 1270.19 339.485H1272.43V339.703C1272.12 340.614 1270.49 341.984 1266.14 341.984C1261.87 341.984 1259.15 340.621 1259.15 338.093ZM1261.64 337.437H1270.34C1270.31 336.081 1268.91 335.178 1266.11 335.178C1263.37 335.178 1261.84 336.096 1261.64 337.437Z" fill="white"/>
<path d="M1276.06 341.809V334.383H1278.5V335.433H1278.79C1279.28 334.959 1280.5 334.216 1283.5 334.216C1286.7 334.216 1288.82 335.112 1288.82 336.817V341.809H1286.3V336.905C1286.3 335.739 1284.95 335.221 1282.9 335.221C1280.58 335.221 1278.58 335.979 1278.58 337.524V341.809H1276.06Z" fill="white"/>
<path d="M1305.3 334.383V341.809H1302.85V340.76H1302.57C1302.07 341.234 1300.85 341.977 1297.91 341.977C1294.74 341.977 1292.63 341.081 1292.63 339.375V334.383H1295.14V339.288C1295.14 340.454 1296.5 340.971 1298.51 340.971C1300.8 340.971 1302.78 340.213 1302.78 338.668V334.383H1305.3Z" fill="white"/>
<path d="M1317.33 333.035V331.505H1319.91V333.035H1317.33ZM1317.37 341.809V334.383H1319.89V341.809H1317.37Z" fill="white"/>
<path d="M1322.57 335.323V334.383H1325.47V332.336H1327.97V334.383H1331.32V335.323H1327.97V340.17C1327.97 340.585 1328.34 340.818 1329.25 340.818H1331.24V341.809H1328.79C1326.67 341.809 1325.47 341.27 1325.47 340.191V335.323H1322.57Z" fill="white"/>
<path d="M1333.21 338.093C1333.21 335.571 1335.91 334.208 1340.18 334.208C1344.48 334.208 1346.81 335.586 1346.81 337.772V338.37H1335.65C1335.71 340.002 1337.38 341.015 1340.18 341.015C1342.83 341.015 1344.02 340.199 1344.25 339.485H1346.49V339.703C1346.18 340.614 1344.55 341.984 1340.19 341.984C1335.92 341.984 1333.21 340.621 1333.21 338.093ZM1335.69 337.437H1344.39C1344.36 336.081 1342.96 335.178 1340.16 335.178C1337.42 335.178 1335.89 336.096 1335.69 337.437Z" fill="white"/>
<path d="M1350.12 341.809V334.383H1352.53V335.323H1352.82C1353.42 334.806 1354.49 334.216 1357.13 334.216C1359.64 334.216 1360.86 334.886 1361.29 335.527H1361.57C1362.24 334.864 1363.56 334.216 1366.26 334.216C1368.91 334.216 1371.11 334.966 1371.11 336.701V341.809H1368.61V336.788C1368.61 335.826 1367.58 335.221 1365.61 335.221C1363.41 335.221 1361.86 335.943 1361.86 337.393V341.809H1359.36V336.788C1359.36 335.826 1358.37 335.221 1356.4 335.221C1354.16 335.221 1352.6 335.943 1352.6 337.393V341.809H1350.12Z" fill="white"/>
<path d="M1462.63 341.809V331.315H1466.22L1473.21 340.089H1473.5L1480.48 331.315H1484.08V341.809H1481.6V333.356H1481.31L1474.57 341.809H1472.13L1465.39 333.356H1465.1V341.809H1462.63Z" fill="white"/>
<path d="M1487.65 338.093C1487.65 335.571 1490.35 334.208 1494.62 334.208C1498.92 334.208 1501.25 335.586 1501.25 337.772V338.37H1490.1C1490.15 340.002 1491.82 341.015 1494.62 341.015C1497.28 341.015 1498.46 340.199 1498.69 339.485H1500.94V339.703C1500.62 340.614 1498.99 341.984 1494.64 341.984C1490.37 341.984 1487.65 340.621 1487.65 338.093ZM1490.14 337.437H1498.84C1498.81 336.081 1497.41 335.178 1494.61 335.178C1491.87 335.178 1490.34 336.096 1490.14 337.437Z" fill="white"/>
<path d="M1504.56 341.809V334.383H1507.01V335.433H1507.29C1507.78 334.959 1509 334.216 1512 334.216C1515.2 334.216 1517.32 335.112 1517.32 336.817V341.809H1514.8V336.905C1514.8 335.739 1513.45 335.221 1511.4 335.221C1509.08 335.221 1507.08 335.979 1507.08 337.524V341.809H1504.56Z" fill="white"/>
<path d="M1533.8 334.383V341.809H1531.35V340.76H1531.07C1530.57 341.234 1529.35 341.977 1526.41 341.977C1523.24 341.977 1521.13 341.081 1521.13 339.375V334.383H1523.64V339.288C1523.64 340.454 1525 340.971 1527.01 340.971C1529.3 340.971 1531.28 340.213 1531.28 338.668V334.383H1533.8Z" fill="white"/>
<path d="M1545.83 333.035V331.505H1548.42V333.035H1545.83ZM1545.87 341.809V334.383H1548.39V341.809H1545.87Z" fill="white"/>
<path d="M1551.07 335.323V334.383H1553.97V332.336H1556.47V334.383H1559.82V335.323H1556.47V340.17C1556.47 340.585 1556.84 340.818 1557.75 340.818H1559.74V341.809H1557.29C1555.17 341.809 1553.97 341.27 1553.97 340.191V335.323H1551.07Z" fill="white"/>
<path d="M1561.71 338.093C1561.71 335.571 1564.41 334.208 1568.68 334.208C1572.98 334.208 1575.31 335.586 1575.31 337.772V338.37H1564.15C1564.21 340.002 1565.88 341.015 1568.68 341.015C1571.34 341.015 1572.52 340.199 1572.75 339.485H1574.99V339.703C1574.68 340.614 1573.05 341.984 1568.69 341.984C1564.42 341.984 1561.71 340.621 1561.71 338.093ZM1564.19 337.437H1572.89C1572.86 336.081 1571.46 335.178 1568.66 335.178C1565.92 335.178 1564.39 336.096 1564.19 337.437Z" fill="white"/>
<path d="M1578.62 341.809V334.383H1581.03V335.323H1581.32C1581.92 334.806 1582.99 334.216 1585.63 334.216C1588.15 334.216 1589.36 334.886 1589.79 335.527H1590.07C1590.74 334.864 1592.06 334.216 1594.76 334.216C1597.41 334.216 1599.61 334.966 1599.61 336.701V341.809H1597.11V336.788C1597.11 335.826 1596.09 335.221 1594.11 335.221C1591.92 335.221 1590.36 335.943 1590.36 337.393V341.809H1587.86V336.788C1587.86 335.826 1586.87 335.221 1584.9 335.221C1582.66 335.221 1581.1 335.943 1581.1 337.393V341.809H1578.62Z" fill="white"/>
<path d="M1691.13 341.809V331.315H1694.72L1701.72 340.089H1702L1708.98 331.315H1712.58V341.809H1710.1V333.356H1709.81L1703.07 341.809H1700.63L1693.89 333.356H1693.6V341.809H1691.13Z" fill="white"/>
<path d="M1716.15 338.093C1716.15 335.571 1718.85 334.208 1723.12 334.208C1727.42 334.208 1729.75 335.586 1729.75 337.772V338.37H1718.6C1718.65 340.002 1720.32 341.015 1723.12 341.015C1725.78 341.015 1726.97 340.199 1727.19 339.485H1729.44V339.703C1729.12 340.614 1727.49 341.984 1723.14 341.984C1718.87 341.984 1716.15 340.621 1716.15 338.093ZM1718.64 337.437H1727.34C1727.31 336.081 1725.91 335.178 1723.11 335.178C1720.37 335.178 1718.84 336.096 1718.64 337.437Z" fill="white"/>
<path d="M1733.06 341.809V334.383H1735.51V335.433H1735.79C1736.28 334.959 1737.51 334.216 1740.5 334.216C1743.7 334.216 1745.82 335.112 1745.82 336.817V341.809H1743.3V336.905C1743.3 335.739 1741.95 335.221 1739.9 335.221C1737.58 335.221 1735.58 335.979 1735.58 337.524V341.809H1733.06Z" fill="white"/>
<path d="M1762.3 334.383V341.809H1759.85V340.76H1759.57C1759.07 341.234 1757.86 341.977 1754.91 341.977C1751.74 341.977 1749.63 341.081 1749.63 339.375V334.383H1752.14V339.288C1752.14 340.454 1753.5 340.971 1755.51 340.971C1757.8 340.971 1759.78 340.213 1759.78 338.668V334.383H1762.3Z" fill="white"/>
<path d="M1774.33 333.035V331.505H1776.92V333.035H1774.33ZM1774.37 341.809V334.383H1776.89V341.809H1774.37Z" fill="white"/>
<path d="M1779.57 335.323V334.383H1782.47V332.336H1784.97V334.383H1788.32V335.323H1784.97V340.17C1784.97 340.585 1785.34 340.818 1786.25 340.818H1788.24V341.809H1785.8C1783.67 341.809 1782.47 341.27 1782.47 340.191V335.323H1779.57Z" fill="white"/>
<path d="M1790.21 338.093C1790.21 335.571 1792.91 334.208 1797.18 334.208C1801.48 334.208 1803.81 335.586 1803.81 337.772V338.37H1792.65C1792.71 340.002 1794.38 341.015 1797.18 341.015C1799.84 341.015 1801.02 340.199 1801.25 339.485H1803.49V339.703C1803.18 340.614 1801.55 341.984 1797.19 341.984C1792.92 341.984 1790.21 340.621 1790.21 338.093ZM1792.7 337.437H1801.39C1801.36 336.081 1799.96 335.178 1797.17 335.178C1794.42 335.178 1792.9 336.096 1792.7 337.437Z" fill="white"/>
<path d="M1807.12 341.809V334.383H1809.53V335.323H1809.82C1810.42 334.806 1811.49 334.216 1814.13 334.216C1816.65 334.216 1817.86 334.886 1818.29 335.527H1818.57C1819.24 334.864 1820.56 334.216 1823.26 334.216C1825.91 334.216 1828.11 334.966 1828.11 336.701V341.809H1825.61V336.788C1825.61 335.826 1824.59 335.221 1822.62 335.221C1820.42 335.221 1818.86 335.943 1818.86 337.393V341.809H1816.36V336.788C1816.36 335.826 1815.37 335.221 1813.4 335.221C1811.16 335.221 1809.61 335.943 1809.61 337.393V341.809H1807.12Z" fill="white"/>
<path d="M2720.24 335.017C2720.24 333.341 2723.04 332.059 2728.07 332.059C2733.08 332.059 2736.01 333.305 2736.29 335.119V335.338H2732.97C2732.84 333.932 2730.77 333.37 2728.13 333.37C2725.47 333.37 2723.71 333.953 2723.71 334.944C2723.71 335.928 2725.3 336.3 2727.75 336.548L2730.44 336.825C2734.24 337.211 2736.78 337.961 2736.78 339.776C2736.78 341.612 2733.94 342.888 2728.68 342.888C2723.44 342.888 2720.14 341.612 2719.87 339.761V339.543H2723.23C2723.56 340.971 2725.8 341.576 2728.65 341.576C2731.51 341.576 2733.31 340.971 2733.31 339.893C2733.31 338.829 2731.61 338.508 2729.04 338.238L2726.35 337.961C2722.67 337.59 2720.24 336.693 2720.24 335.017Z" fill="white"/>
<path d="M2738.35 336.38V335.192H2741.16V333.152H2744.51V335.192H2747.73V336.38H2744.51V340.847C2744.51 341.248 2744.89 341.467 2745.72 341.467H2747.65V342.72H2744.94C2742.56 342.72 2741.16 342.093 2741.16 340.898V336.38H2738.35Z" fill="white"/>
<path d="M2753.53 337.408H2750.45V337.189C2750.76 335.855 2753.19 335.017 2756.86 335.017C2760.56 335.017 2763 335.855 2763 337.801V341C2763 341.357 2763.33 341.532 2764.04 341.532H2764.77V342.72H2763.27C2761.44 342.72 2760.64 342.232 2760.5 341.627H2760.21C2759.47 342.268 2758.1 342.866 2755.17 342.866C2751.93 342.866 2749.65 341.97 2749.65 340.57C2749.65 339.069 2751.9 338.442 2754.76 338.297L2758.14 338.129C2759.24 338.078 2759.81 337.918 2759.81 337.422C2759.81 336.642 2758.73 336.234 2756.8 336.234C2754.89 336.234 2753.6 336.635 2753.53 337.408ZM2752.96 340.512C2752.96 341.212 2754.07 341.656 2755.82 341.656C2757.73 341.656 2759.8 341.095 2759.8 339.514V339.047H2759.51C2759.07 339.178 2758.61 339.251 2757.5 339.31L2755.6 339.412C2753.99 339.492 2752.96 339.798 2752.96 340.512Z" fill="white"/>
<path d="M2767.18 342.72V335.192H2770.44V336.3H2770.72C2771.34 335.564 2772.6 334.959 2775.59 335.119V336.577C2772.61 336.387 2770.57 336.854 2770.57 338.712V342.72H2767.18Z" fill="white"/>
<path d="M2776.84 336.38V335.192H2779.66V333.152H2783V335.192H2786.23V336.38H2783V340.847C2783 341.248 2783.38 341.467 2784.21 341.467H2786.14V342.72H2783.43C2781.06 342.72 2779.66 342.093 2779.66 340.898V336.38H2776.84Z" fill="white"/>
<path d="M2799.89 337.408H2796.8V337.189C2797.12 335.855 2799.55 335.017 2803.22 335.017C2806.92 335.017 2809.36 335.855 2809.36 337.801V341C2809.36 341.357 2809.69 341.532 2810.4 341.532H2811.13V342.72H2809.63C2807.8 342.72 2807 342.232 2806.86 341.627H2806.57C2805.83 342.268 2804.46 342.866 2801.53 342.866C2798.29 342.866 2796 341.97 2796 340.57C2796 339.069 2798.26 338.442 2801.12 338.297L2804.5 338.129C2805.6 338.078 2806.17 337.918 2806.17 337.422C2806.17 336.642 2805.09 336.234 2803.16 336.234C2801.25 336.234 2799.96 336.635 2799.89 337.408ZM2799.32 340.512C2799.32 341.212 2800.43 341.656 2802.17 341.656C2804.09 341.656 2806.16 341.095 2806.16 339.514V339.047H2805.87C2805.43 339.178 2804.97 339.251 2803.86 339.31L2801.96 339.412C2800.35 339.492 2799.32 339.798 2799.32 340.512Z" fill="white"/>
<path d="M2821.3 345.635V335.192H2824.55V336.147H2824.84C2825.49 335.578 2826.91 335.032 2829.54 335.032C2833.29 335.032 2836.28 336.315 2836.28 338.953C2836.28 341.591 2833.29 342.88 2829.54 342.88C2826.91 342.88 2825.58 342.327 2824.97 341.853H2824.68V345.635H2821.3ZM2824.54 338.953C2824.54 340.658 2826.21 341.576 2828.71 341.576C2831.21 341.576 2832.86 340.658 2832.86 338.953C2832.86 337.255 2831.21 336.336 2828.71 336.336C2826.21 336.336 2824.54 337.255 2824.54 338.953Z" fill="white"/>
<path d="M2839.26 342.72V335.192H2842.52V336.3H2842.8C2843.41 335.564 2844.67 334.959 2847.67 335.119V336.577C2844.69 336.387 2842.64 336.854 2842.64 338.712V342.72H2839.26Z" fill="white"/>
<path d="M2848.97 338.953C2848.97 336.387 2852.15 335.017 2856.64 335.017C2861.13 335.017 2864.3 336.387 2864.3 338.953C2864.3 341.525 2861.13 342.895 2856.64 342.895C2852.15 342.895 2848.97 341.525 2848.97 338.953ZM2852.4 338.953C2852.4 340.687 2854.09 341.612 2856.64 341.612C2859.19 341.612 2860.87 340.687 2860.87 338.953C2860.87 337.225 2859.19 336.3 2856.64 336.3C2854.09 336.3 2852.4 337.225 2852.4 338.953Z" fill="white"/>
<path d="M2867.31 333.924V332.234H2870.73V333.924H2867.31ZM2864.51 345.635V344.382H2866.12C2866.95 344.382 2867.33 344.163 2867.33 343.762V335.192H2870.72V343.813C2870.72 345.016 2869.32 345.635 2866.94 345.635H2864.51Z" fill="white"/>
<path d="M2873.69 338.953C2873.69 336.358 2876.53 335.017 2880.97 335.017C2885.4 335.017 2887.9 336.387 2887.9 338.654V339.375H2876.93C2876.99 340.745 2878.43 341.649 2880.96 341.649C2883.4 341.649 2884.41 340.935 2884.63 340.33H2887.6V340.549C2887.23 341.532 2885.5 342.895 2881 342.895C2876.54 342.895 2873.69 341.547 2873.69 338.953ZM2876.97 338.187H2884.7C2884.67 337.051 2883.47 336.249 2880.94 336.249C2878.46 336.249 2877.16 337.072 2876.97 338.187Z" fill="white"/>
<path d="M2890.06 338.953C2890.06 336.438 2893.05 335.017 2897.53 335.017C2901.76 335.017 2903.86 336.3 2904.11 337.561V337.779H2900.94C2900.8 337.065 2899.87 336.3 2897.56 336.3C2895.05 336.3 2893.47 337.269 2893.47 338.953C2893.47 340.643 2895.03 341.612 2897.56 341.612C2899.94 341.612 2900.82 340.833 2901.03 340.046H2904.2V340.264C2903.9 341.612 2901.81 342.895 2897.53 342.895C2893.03 342.895 2890.06 341.467 2890.06 338.953Z" fill="white"/>
<path d="M2905.6 336.38V335.192H2908.41V333.152H2911.75V335.192H2914.98V336.38H2911.75V340.847C2911.75 341.248 2912.14 341.467 2912.97 341.467H2914.9V342.72H2912.18C2909.81 342.72 2908.41 342.093 2908.41 340.898V336.38H2905.6Z" fill="white"/>
<path d="M2947.74 341.539L2946.18 340.746L2960.82 333.269H2947.52V332.131H2964.62V340.86H2962.39V334.069L2947.74 341.539Z" fill="white"/>
<path d="M341.363 446.933V445.042H363.234L398.202 520.579H400.674L442.068 445.042H466.04L507.434 520.579H509.905L544.874 445.042H566.621V446.933L523.991 535.837H495.819L455.166 462.003H452.695L412.042 535.837H383.992L341.363 446.933Z" fill="white"/>
<path d="M566.579 503.681C566.579 481.864 589.933 470.074 626.879 470.074C664.072 470.074 684.213 481.99 684.213 500.906V506.077H587.708C588.203 520.2 602.66 528.965 626.879 528.965C649.862 528.965 660.117 521.903 662.095 515.724H681.494V517.615C678.776 525.497 664.689 537.351 627.002 537.351C590.056 537.351 566.579 525.56 566.579 503.681ZM588.079 498.006H663.33C663.083 486.278 650.974 478.46 626.755 478.46C603.031 478.46 589.809 486.404 588.079 498.006Z" fill="white"/>
<path d="M759.359 503.744C759.359 482.873 782.96 470.074 821.142 470.074C856.976 470.074 872.668 481.171 875.016 490.692V492.583H854.504C853.022 486.278 844.001 478.712 821.265 478.712C796.799 478.712 781.354 487.791 781.354 503.744C781.354 519.633 796.676 528.712 821.265 528.712C844.372 528.712 853.022 521.524 855.246 514.21H875.634V516.102C873.163 526.127 857.47 537.351 821.142 537.351C782.713 537.351 759.359 524.551 759.359 503.744Z" fill="white"/>
<path d="M896.35 535.837V471.587H917.48V480.666H919.951C925.265 475.181 935.644 469.695 961.469 471.019V480.603C935.397 479.216 918.098 483.882 918.098 500.023V535.837H896.35Z" fill="white"/>
<path d="M968.551 503.681C968.551 481.864 991.905 470.074 1028.85 470.074C1066.04 470.074 1086.18 481.99 1086.18 500.906V506.077H989.68C990.175 520.2 1004.63 528.965 1028.85 528.965C1051.83 528.965 1062.09 521.903 1064.07 515.724H1083.47V517.615C1080.75 525.497 1066.66 537.351 1028.97 537.351C992.028 537.351 968.551 525.56 968.551 503.681ZM990.051 498.006H1065.3C1065.06 486.278 1052.95 478.46 1028.73 478.46C1005 478.46 991.781 486.404 990.051 498.006Z" fill="white"/>
<path d="M1127.21 490.124H1107.07V488.233C1109.67 477.009 1129.81 470.074 1160.08 470.074C1190.36 470.074 1210.25 477.009 1210.25 493.025V522.785C1210.25 526.064 1213.34 527.704 1219.76 527.704H1226.81V535.837H1216.18C1200.98 535.837 1193.69 531.865 1192.95 525.875H1190.48C1183.93 532.054 1171.7 537.224 1146.61 537.224C1119.55 537.224 1100.65 529.469 1100.65 517.93C1100.65 505.32 1119.92 500.087 1144.39 498.889L1173.55 497.501C1183.93 496.997 1189.49 495.547 1189.49 490.629C1189.49 482.432 1178.74 478.333 1159.71 478.333C1140.68 478.333 1127.96 482.306 1127.21 490.124ZM1122.15 517.552C1122.15 524.425 1133.39 528.965 1150.07 528.965C1170.09 528.965 1189.61 522.975 1189.61 507.464V503.176H1187.14C1183.31 504.374 1179.61 505.068 1168.48 505.635L1149.33 506.581C1132.03 507.527 1122.15 510.553 1122.15 517.552Z" fill="white"/>
<path d="M1224.92 479.721V471.587H1250V453.869H1271.62V471.587H1300.66V479.721H1271.62V521.651C1271.62 525.245 1274.84 527.262 1282.75 527.262H1299.92V535.837H1278.79C1260.38 535.837 1250 531.172 1250 521.84V479.721H1224.92Z" fill="white"/>
<path d="M1310.82 503.681C1310.82 481.864 1334.17 470.074 1371.12 470.074C1408.31 470.074 1428.45 481.99 1428.45 500.906V506.077H1331.95C1332.44 520.2 1346.9 528.965 1371.12 528.965C1394.1 528.965 1404.35 521.903 1406.33 515.724H1425.73V517.615C1423.01 525.497 1408.93 537.351 1371.24 537.351C1334.29 537.351 1310.82 525.56 1310.82 503.681ZM1332.32 498.006H1407.57C1407.32 486.278 1395.21 478.46 1370.99 478.46C1347.27 478.46 1334.05 486.404 1332.32 498.006Z" fill="white"/>
<path d="M1530.63 490.124H1510.49V488.233C1513.09 477.009 1533.23 470.074 1563.5 470.074C1593.78 470.074 1613.67 477.009 1613.67 493.025V522.785C1613.67 526.064 1616.76 527.704 1623.18 527.704H1630.23V535.837H1619.6C1604.4 535.837 1597.11 531.865 1596.37 525.875H1593.9C1587.35 532.054 1575.12 537.224 1550.03 537.224C1522.97 537.224 1504.07 529.469 1504.07 517.93C1504.07 505.32 1523.34 500.087 1547.81 498.889L1576.97 497.501C1587.35 496.997 1592.91 495.547 1592.91 490.629C1592.91 482.432 1582.16 478.333 1563.13 478.333C1544.1 478.333 1531.38 482.306 1530.63 490.124ZM1525.57 517.552C1525.57 524.425 1536.81 528.965 1553.49 528.965C1573.51 528.965 1593.03 522.975 1593.03 507.464V503.176H1590.56C1586.73 504.374 1583.03 505.068 1571.9 505.635L1552.75 506.581C1535.45 507.527 1525.57 510.553 1525.57 517.552Z" fill="white"/>
<path d="M1630.74 473.478V471.587H1650.63L1675.35 522.533H1677.82L1707.47 471.587H1729.59L1759.25 522.533H1761.72L1786.43 471.587H1806.2V473.478L1774.69 535.837H1749.24L1719.71 485.143H1717.23L1687.58 535.837H1662.25L1630.74 473.478Z" fill="white"/>
<path d="M1840.7 490.124H1820.56V488.233C1823.16 477.009 1843.3 470.074 1873.57 470.074C1903.85 470.074 1923.74 477.009 1923.74 493.025V522.785C1923.74 526.064 1926.83 527.704 1933.25 527.704H1940.3V535.837H1929.67C1914.47 535.837 1907.18 531.865 1906.44 525.875H1903.97C1897.42 532.054 1885.19 537.224 1860.1 537.224C1833.04 537.224 1814.14 529.469 1814.14 517.93C1814.14 505.32 1833.41 500.087 1857.88 498.889L1887.04 497.501C1897.42 496.997 1902.98 495.547 1902.98 490.629C1902.98 482.432 1892.23 478.333 1873.2 478.333C1854.17 478.333 1841.45 482.306 1840.7 490.124ZM1835.64 517.552C1835.64 524.425 1846.88 528.965 1863.56 528.965C1883.58 528.965 1903.1 522.975 1903.1 507.464V503.176H1900.63C1896.8 504.374 1893.1 505.068 1881.98 505.635L1862.82 506.581C1845.52 507.527 1835.64 510.553 1835.64 517.552Z" fill="white"/>
<path d="M1957.66 535.837V471.587H1978.79V480.666H1981.26C1986.57 475.181 1996.95 469.695 2022.78 471.019V480.603C1996.7 479.216 1979.4 483.882 1979.4 500.023V535.837H1957.66Z" fill="white"/>
<path d="M2153.42 445.042V535.837H2132.29V526.695H2129.82C2124.01 531.865 2111.53 537.288 2087.69 537.288C2054.94 537.288 2029.86 525.938 2029.86 503.744C2029.86 481.486 2054.94 470.137 2087.69 470.137C2111.53 470.137 2123.64 475.559 2129.2 480.288H2131.68V445.042H2153.42ZM2132.42 503.744C2132.42 487.728 2116.11 478.901 2092.13 478.901C2068.16 478.901 2051.85 487.728 2051.85 503.744C2051.85 519.696 2068.16 528.523 2092.13 528.523C2116.11 528.523 2132.42 519.696 2132.42 503.744Z" fill="white"/>
<path d="M338.521 590.988V589.097H358.414L383.128 640.043H385.599L415.254 589.097H437.372L467.028 640.043H469.499L494.212 589.097H513.983V590.988L482.474 653.347H457.019L427.487 602.653H425.016L395.36 653.347H370.03L338.521 590.988Z" fill="white"/>
<path d="M530.305 577.432V564.191H552.67V577.432H530.305ZM530.676 653.347V589.097H552.423V653.347H530.676Z" fill="white"/>
<path d="M582.418 653.347V589.097H603.548V598.176H606.019C610.22 594.078 620.847 587.647 646.796 587.647C674.474 587.647 692.762 595.402 692.762 610.156V653.347H671.014V610.913C671.014 600.825 659.276 596.348 641.606 596.348C621.465 596.348 604.166 602.905 604.166 616.272V653.347H582.418Z" fill="white"/>
<path d="M721.767 653.347V589.097H742.896V598.176H745.368C749.569 594.078 760.195 587.647 786.144 587.647C813.823 587.647 832.11 595.402 832.11 610.156V653.347H810.363V610.913C810.363 600.825 798.624 596.348 780.954 596.348C760.813 596.348 743.514 602.905 743.514 616.272V653.347H721.767Z" fill="white"/>
<path d="M860.744 577.432V564.191H883.11V577.432H860.744ZM861.115 653.347V589.097H882.863V653.347H861.115Z" fill="white"/>
<path d="M912.858 653.347V589.097H933.987V598.176H936.459C940.66 594.078 951.286 587.647 977.235 587.647C1004.91 587.647 1023.2 595.402 1023.2 610.156V653.347H1001.45V610.913C1001.45 600.825 989.715 596.348 972.045 596.348C951.904 596.348 934.605 602.905 934.605 616.272V653.347H912.858Z" fill="white"/>
<path d="M1044.67 620.245C1044.67 598.555 1069.75 587.647 1102.25 587.647C1125.36 587.647 1137.47 593.006 1143.15 597.672H1145.62V589.097H1166.75V650.825C1166.75 669.426 1147.6 680.082 1107.56 680.082C1068.39 680.082 1050.11 669.93 1048.01 659.085V657.194H1068.15C1069.38 664.76 1080.38 671.633 1107.19 671.633C1134.13 671.633 1145 664.571 1145 651.267V643.196H1142.53C1136.48 647.799 1124.74 652.78 1102.25 652.78C1069.75 652.78 1044.67 641.935 1044.67 620.245ZM1066.66 620.245C1066.66 635.63 1082.6 644.079 1106.2 644.079C1129.81 644.079 1145.74 635.63 1145.74 620.245C1145.74 604.86 1129.81 596.411 1106.2 596.411C1082.6 596.411 1066.66 604.86 1066.66 620.245Z" fill="white"/>
<path d="M1245.52 590.988V589.097H1265.41L1290.12 640.043H1292.59L1322.25 589.097H1344.37L1374.02 640.043H1376.49L1401.21 589.097H1420.98V590.988L1389.47 653.347H1364.01L1334.48 602.653H1332.01L1302.36 653.347H1277.02L1245.52 590.988Z" fill="white"/>
<path d="M1429.17 621.19C1429.17 599.374 1452.52 587.583 1489.47 587.583C1526.66 587.583 1546.8 599.5 1546.8 618.416V623.587H1450.3C1450.79 637.71 1465.25 646.475 1489.47 646.475C1512.45 646.475 1522.71 639.413 1524.68 633.234H1544.08V635.125C1541.36 643.007 1527.28 654.861 1489.59 654.861C1452.65 654.861 1429.17 643.07 1429.17 621.19ZM1450.67 615.516H1525.92C1525.67 603.788 1513.56 595.97 1489.34 595.97C1465.62 595.97 1452.4 603.914 1450.67 615.516Z" fill="white"/>
<path d="M1569.3 653.347V562.552H1591.04V597.798H1593.52C1599.08 593.069 1611.18 587.647 1635.03 587.647C1667.78 587.647 1692.74 598.996 1692.74 621.254C1692.74 643.448 1667.78 654.798 1635.03 654.798C1611.18 654.798 1598.7 649.375 1592.9 644.205H1590.43V653.347H1569.3ZM1590.18 621.254C1590.18 637.206 1606.49 646.033 1630.58 646.033C1654.56 646.033 1670.87 637.206 1670.87 621.254C1670.87 605.238 1654.56 596.411 1630.58 596.411C1606.49 596.411 1590.18 605.238 1590.18 621.254Z" fill="white"/>
<path d="M1709.84 606.121C1709.84 594.456 1729.12 587.647 1760.26 587.647C1791.52 587.647 1810.79 594.835 1813.27 605.743V607.634H1793.12C1792.14 599.374 1779.66 595.78 1760.63 595.78C1741.97 595.78 1730.6 599.437 1730.6 605.68C1730.6 611.985 1741.23 614.192 1754.45 615.327L1774.71 617.029C1799.67 619.173 1817.34 623.397 1817.34 635.314C1817.34 647.357 1798.81 654.861 1764.95 654.861C1730.97 654.861 1710.34 647.357 1707.25 635.63V633.738H1727.64C1729.12 642.25 1744.07 646.727 1764.95 646.727C1785.83 646.727 1796.58 642.25 1796.58 636.008C1796.58 629.513 1785.59 627.307 1769.65 625.983L1749.38 624.28C1726.4 622.262 1709.84 617.281 1709.84 606.121Z" fill="white"/>
<path d="M1838.21 577.432V564.191H1860.58V577.432H1838.21ZM1838.58 653.347V589.097H1860.33V653.347H1838.58Z" fill="white"/>
<path d="M1877.35 597.231V589.097H1902.43V571.379H1924.06V589.097H1953.09V597.231H1924.06V639.161C1924.06 642.755 1927.27 644.772 1935.18 644.772H1952.35V653.347H1931.22C1912.81 653.347 1902.43 648.681 1902.43 639.35V597.231H1877.35Z" fill="white"/>
<path d="M1963.25 621.19C1963.25 599.374 1986.6 587.583 2023.55 587.583C2060.74 587.583 2080.88 599.5 2080.88 618.416V623.587H1984.38C1984.87 637.71 1999.33 646.475 2023.55 646.475C2046.53 646.475 2056.79 639.413 2058.76 633.234H2078.16V635.125C2075.45 643.007 2061.36 654.861 2023.67 654.861C1986.73 654.861 1963.25 643.07 1963.25 621.19ZM1984.75 615.516H2060C2059.75 603.788 2047.64 595.97 2023.42 595.97C1999.7 595.97 1986.48 603.914 1984.75 615.516Z" fill="white"/>
<path d="M359.996 769.035V755.918H371.064C375.634 755.918 379.008 757.057 379.008 759.243C379.008 761.329 376.294 761.985 374.812 762.167V762.349C376.615 762.541 379.811 763.224 379.811 765.483C379.811 767.824 376.258 769.035 371.492 769.035H359.996ZM370.528 757.23H363.262V761.702H370.528C373.491 761.702 375.848 761.028 375.794 759.471C375.794 757.904 373.438 757.23 370.528 757.23ZM371.028 763.014H363.262V767.715H371.028C374.17 767.715 376.58 766.986 376.58 765.373C376.58 763.761 374.17 763.014 371.028 763.014Z" fill="white"/>
<path d="M386.497 762.431H383.587V762.158C383.962 760.536 386.871 759.534 391.245 759.534C395.619 759.534 398.493 760.536 398.493 762.85V767.15C398.493 767.624 398.939 767.86 399.867 767.86H400.885V769.035H399.35C397.154 769.035 396.101 768.462 395.994 767.596H395.637C394.69 768.489 392.923 769.236 389.299 769.236C385.39 769.236 382.658 768.115 382.658 766.448C382.658 764.627 385.443 763.87 388.978 763.697L393.191 763.497C394.69 763.424 395.494 763.215 395.494 762.504C395.494 761.32 393.941 760.728 391.192 760.728C388.442 760.728 386.604 761.302 386.497 762.431ZM385.765 766.394C385.765 767.387 387.389 768.043 389.799 768.043C392.691 768.043 395.512 767.177 395.512 764.936V764.317H395.155C394.601 764.49 394.066 764.59 392.459 764.672L389.692 764.809C387.193 764.945 385.765 765.383 385.765 766.394Z" fill="white"/>
<path d="M403.377 762.213C403.377 760.527 406.162 759.544 410.661 759.544C415.177 759.544 417.962 760.582 418.319 762.158V762.431H415.409C415.267 761.238 413.464 760.719 410.714 760.719C408.019 760.719 406.377 761.247 406.377 762.149C406.377 763.06 407.912 763.379 409.822 763.543L412.75 763.789C416.356 764.098 418.908 764.709 418.908 766.43C418.908 768.17 416.231 769.254 411.339 769.254C406.43 769.254 403.449 768.17 403.003 766.476V766.202H405.948C406.162 767.432 408.322 768.079 411.339 768.079C414.356 768.079 415.909 767.432 415.909 766.53C415.909 765.592 414.32 765.273 412.018 765.082L409.09 764.836C405.77 764.545 403.377 763.825 403.377 762.213Z" fill="white"/>
<path d="M421.78 764.39C421.78 761.238 425.154 759.534 430.492 759.534C435.865 759.534 438.775 761.256 438.775 763.989V764.736H424.833C424.904 766.776 426.993 768.043 430.492 768.043C433.812 768.043 435.294 767.022 435.58 766.13H438.382V766.403C437.99 767.542 435.954 769.254 430.51 769.254C425.172 769.254 421.78 767.551 421.78 764.39ZM424.886 763.57H435.758C435.722 761.876 433.973 760.746 430.474 760.746C427.046 760.746 425.136 761.894 424.886 763.57Z" fill="white"/>
<path d="M459.68 755.918V769.035H456.627V767.715H456.27C455.431 768.462 453.628 769.245 450.183 769.245C445.452 769.245 441.828 767.605 441.828 764.399C441.828 761.183 445.452 759.544 450.183 759.544C453.628 759.544 455.378 760.327 456.181 761.01H456.538V755.918H459.68ZM456.645 764.399C456.645 762.085 454.289 760.81 450.826 760.81C447.362 760.81 445.006 762.085 445.006 764.399C445.006 766.703 447.362 767.979 450.826 767.979C454.289 767.979 456.645 766.703 456.645 764.399Z" fill="white"/>
<path d="M474.732 758.068V756.155H477.963V758.068H474.732ZM474.785 769.035V759.753H477.927V769.035H474.785Z" fill="white"/>
<path d="M483.153 769.035V759.753H486.206V761.065H486.563C487.17 760.473 488.705 759.544 492.454 759.544C496.453 759.544 499.095 760.664 499.095 762.796V769.035H495.953V762.905C495.953 761.447 494.257 760.801 491.704 760.801C488.794 760.801 486.295 761.748 486.295 763.679V769.035H483.153Z" fill="white"/>
<path d="M513.492 759.307C513.492 757.175 517.062 755.709 523.006 755.709C528.933 755.709 532.646 757.148 533.039 759.48V759.753H529.915C529.701 757.795 526.791 757.002 523.06 757.002C519.329 757.002 516.723 757.813 516.723 759.261C516.723 760.682 519.043 761.183 522.453 761.529L525.541 761.839C530.183 762.313 533.575 763.142 533.575 765.446C533.575 767.787 529.915 769.245 523.756 769.245C517.633 769.245 513.42 767.787 512.956 765.428V765.155H516.116C516.598 767.15 519.811 767.951 523.738 767.951C527.63 767.951 530.343 767.15 530.343 765.547C530.343 763.98 527.773 763.561 524.31 763.206L521.221 762.896C516.705 762.44 513.492 761.457 513.492 759.307Z" fill="white"/>
<path d="M540.432 762.431H537.522V762.158C537.897 760.536 540.807 759.534 545.18 759.534C549.554 759.534 552.428 760.536 552.428 762.85V767.15C552.428 767.624 552.874 767.86 553.803 767.86H554.82V769.035H553.285C551.089 769.035 550.036 768.462 549.929 767.596H549.572C548.626 768.489 546.858 769.236 543.234 769.236C539.325 769.236 536.594 768.115 536.594 766.448C536.594 764.627 539.379 763.87 542.913 763.697L547.126 763.497C548.626 763.424 549.429 763.215 549.429 762.504C549.429 761.32 547.876 760.728 545.127 760.728C542.378 760.728 540.539 761.302 540.432 762.431ZM539.7 766.394C539.7 767.387 541.324 768.043 543.734 768.043C546.626 768.043 549.447 767.177 549.447 764.936V764.317H549.09C548.536 764.49 548.001 764.59 546.394 764.672L543.627 764.809C541.128 764.945 539.7 765.383 539.7 766.394Z" fill="white"/>
<path d="M558.221 769.035V759.753H561.273V761.065H561.63C562.237 760.473 563.772 759.544 567.521 759.544C571.52 759.544 574.162 760.664 574.162 762.796V769.035H571.02V762.905C571.02 761.447 569.324 760.801 566.772 760.801C563.862 760.801 561.363 761.748 561.363 763.679V769.035H558.221Z" fill="white"/>
<path d="M589.451 769.035V755.918H606.964V757.248H592.718V761.857H605.375V763.187H592.718V769.035H589.451Z" fill="white"/>
<path d="M610.485 769.035V759.753H613.538V761.065H613.895C614.663 760.272 616.162 759.48 619.893 759.671V761.056C616.127 760.855 613.627 761.529 613.627 763.861V769.035H610.485Z" fill="white"/>
<path d="M625.715 762.431H622.805V762.158C623.18 760.536 626.09 759.534 630.464 759.534C634.837 759.534 637.711 760.536 637.711 762.85V767.15C637.711 767.624 638.158 767.86 639.086 767.86H640.103V769.035H638.568C636.372 769.035 635.319 768.462 635.212 767.596H634.855C633.909 768.489 632.142 769.236 628.518 769.236C624.608 769.236 621.877 768.115 621.877 766.448C621.877 764.627 624.662 763.87 628.196 763.697L632.409 763.497C633.909 763.424 634.712 763.215 634.712 762.504C634.712 761.32 633.159 760.728 630.41 760.728C627.661 760.728 625.822 761.302 625.715 762.431ZM624.983 766.394C624.983 767.387 626.608 768.043 629.018 768.043C631.91 768.043 634.73 767.177 634.73 764.936V764.317H634.373C633.82 764.49 633.284 764.59 631.677 764.672L628.911 764.809C626.411 764.945 624.983 765.383 624.983 766.394Z" fill="white"/>
<path d="M643.504 769.035V759.753H646.557V761.065H646.914C647.521 760.473 649.056 759.544 652.805 759.544C656.803 759.544 659.445 760.664 659.445 762.796V769.035H656.304V762.905C656.304 761.447 654.608 760.801 652.055 760.801C649.145 760.801 646.646 761.748 646.646 763.679V769.035H643.504Z" fill="white"/>
<path d="M663.439 764.399C663.439 761.384 666.849 759.534 672.365 759.534C677.542 759.534 679.809 761.138 680.149 762.513V762.786H677.185C676.971 761.876 675.668 760.782 672.383 760.782C668.848 760.782 666.617 762.094 666.617 764.399C666.617 766.694 668.831 768.006 672.383 768.006C675.721 768.006 676.971 766.968 677.292 765.911H680.238V766.184C679.881 767.633 677.614 769.254 672.365 769.254C666.813 769.254 663.439 767.405 663.439 764.399Z" fill="white"/>
<path d="M684.07 758.068V756.155H687.301V758.068H684.07ZM684.123 769.035V759.753H687.265V769.035H684.123Z" fill="white"/>
<path d="M691.688 762.213C691.688 760.527 694.473 759.544 698.971 759.544C703.488 759.544 706.273 760.582 706.63 762.158V762.431H703.72C703.577 761.238 701.774 760.719 699.025 760.719C696.329 760.719 694.687 761.247 694.687 762.149C694.687 763.06 696.222 763.379 698.132 763.543L701.06 763.789C704.666 764.098 707.219 764.709 707.219 766.43C707.219 768.17 704.541 769.254 699.65 769.254C694.741 769.254 691.759 768.17 691.313 766.476V766.202H694.259C694.473 767.432 696.633 768.079 699.65 768.079C702.667 768.079 704.22 767.432 704.22 766.53C704.22 765.592 702.631 765.273 700.328 765.082L697.4 764.836C694.08 764.545 691.688 763.825 691.688 762.213Z" fill="white"/>
<path d="M710.091 764.399C710.091 761.384 713.5 759.534 719.016 759.534C724.193 759.534 726.461 761.138 726.8 762.513V762.786H723.836C723.622 761.876 722.319 760.782 719.034 760.782C715.5 760.782 713.268 762.094 713.268 764.399C713.268 766.694 715.482 768.006 719.034 768.006C722.373 768.006 723.622 766.968 723.944 765.911H726.889V766.184C726.532 767.633 724.265 769.254 719.016 769.254C713.465 769.254 710.091 767.405 710.091 764.399Z" fill="white"/>
<path d="M729.686 764.399C729.686 761.265 733.363 759.534 738.79 759.534C744.217 759.534 747.894 761.265 747.894 764.399C747.894 767.523 744.217 769.254 738.79 769.254C733.363 769.254 729.686 767.523 729.686 764.399ZM732.881 764.399C732.881 766.749 735.255 768.006 738.79 768.006C742.325 768.006 744.699 766.749 744.699 764.399C744.699 762.039 742.325 760.782 738.79 760.782C735.255 760.782 732.881 762.039 732.881 764.399Z" fill="white"/>
<path d="M750.825 769.035V767.159H754.698V769.728C754.698 770.803 753.556 771.349 751.36 771.349H750.7V770.466H751.11C752.306 770.466 752.717 770.201 752.717 769.655V769.035H750.825Z" fill="white"/>
<path d="M766.31 760.026V759.753H769.184L772.755 767.113H773.112L777.396 759.753H780.591L784.876 767.113H785.233L788.803 759.753H791.659V760.026L787.107 769.035H783.43L779.163 761.712H778.806L774.522 769.035H770.862L766.31 760.026Z" fill="white"/>
<path d="M793.735 764.39C793.735 761.238 797.109 759.534 802.447 759.534C807.82 759.534 810.73 761.256 810.73 763.989V764.736H796.788C796.859 766.776 798.948 768.043 802.447 768.043C805.767 768.043 807.249 767.022 807.535 766.13H810.337V766.403C809.945 767.542 807.909 769.254 802.465 769.254C797.127 769.254 793.735 767.551 793.735 764.39ZM796.841 763.57H807.713C807.677 761.876 805.928 760.746 802.429 760.746C799.002 760.746 797.091 761.894 796.841 763.57Z" fill="white"/>
<path d="M818.068 756.228C817.854 756.653 817.58 757.114 817.247 757.612C816.913 758.11 816.544 758.608 816.14 759.106C815.759 759.592 815.378 760.054 814.997 760.491H812.677C812.843 760.151 813.01 759.786 813.176 759.398C813.367 759.009 813.534 758.62 813.676 758.232C813.843 757.831 813.986 757.442 814.105 757.066C814.248 756.689 814.367 756.343 814.462 756.027H817.818L818.068 756.228Z" fill="white"/>
<path d="M821.113 769.035V759.753H824.166V761.065H824.523C825.291 760.272 826.79 759.48 830.521 759.671V761.056C826.755 760.855 824.255 761.529 824.255 763.861V769.035H821.113Z" fill="white"/>
<path d="M832.437 764.39C832.437 761.238 835.811 759.534 841.149 759.534C846.522 759.534 849.432 761.256 849.432 763.989V764.736H835.49C835.561 766.776 837.65 768.043 841.149 768.043C844.469 768.043 845.951 767.022 846.236 766.13H849.039V766.403C848.646 767.542 846.611 769.254 841.166 769.254C835.829 769.254 832.437 767.551 832.437 764.39ZM835.543 763.57H846.415C846.379 761.876 844.63 760.746 841.131 760.746C837.703 760.746 835.793 761.894 835.543 763.57Z" fill="white"/>
<path d="M865.98 762.431H863.07V762.158C863.445 760.536 866.354 759.534 870.728 759.534C875.102 759.534 877.976 760.536 877.976 762.85V767.15C877.976 767.624 878.422 767.86 879.35 767.86H880.368V769.035H878.833C876.637 769.035 875.584 768.462 875.477 767.596H875.12C874.173 768.489 872.406 769.236 868.782 769.236C864.873 769.236 862.142 768.115 862.142 766.448C862.142 764.627 864.926 763.87 868.461 763.697L872.674 763.497C874.173 763.424 874.977 763.215 874.977 762.504C874.977 761.32 873.424 760.728 870.675 760.728C867.925 760.728 866.087 761.302 865.98 762.431ZM865.248 766.394C865.248 767.387 866.872 768.043 869.282 768.043C872.174 768.043 874.995 767.177 874.995 764.936V764.317H874.638C874.084 764.49 873.549 764.59 871.942 764.672L869.175 764.809C866.676 764.945 865.248 765.383 865.248 766.394Z" fill="white"/>
<path d="M910.259 755.918V769.035H907.206V767.715H906.849C906.01 768.462 904.207 769.245 900.762 769.245C896.031 769.245 892.407 767.605 892.407 764.399C892.407 761.183 896.031 759.544 900.762 759.544C904.207 759.544 905.957 760.327 906.76 761.01H907.117V755.918H910.259ZM907.224 764.399C907.224 762.085 904.868 760.81 901.404 760.81C897.941 760.81 895.585 762.085 895.585 764.399C895.585 766.703 897.941 767.979 901.404 767.979C904.868 767.979 907.224 766.703 907.224 764.399Z" fill="white"/>
<path d="M915.443 758.068V756.155H918.674V758.068H915.443ZM915.497 769.035V759.753H918.639V769.035H915.497Z" fill="white"/>
<path d="M922.776 764.253C922.776 761.119 926.4 759.544 931.095 759.544C934.433 759.544 936.182 760.318 937.004 760.992H937.361V759.753H940.413V768.671C940.413 771.358 937.646 772.898 931.862 772.898C926.203 772.898 923.561 771.431 923.258 769.864V769.591H926.168C926.346 770.684 927.935 771.677 931.809 771.677C935.7 771.677 937.271 770.657 937.271 768.735V767.569H936.914C936.04 768.234 934.344 768.953 931.095 768.953C926.4 768.953 922.776 767.387 922.776 764.253ZM925.953 764.253C925.953 766.476 928.256 767.696 931.666 767.696C935.076 767.696 937.378 766.476 937.378 764.253C937.378 762.03 935.076 760.81 931.666 760.81C928.256 760.81 925.953 762.03 925.953 764.253Z" fill="white"/>
<path d="M945.603 758.068V756.155H948.834V758.068H945.603ZM945.656 769.035V759.753H948.798V769.035H945.656Z" fill="white"/>
<path d="M952.15 760.928V759.753H955.774V757.193H958.898V759.753H963.093V760.928H958.898V766.986C958.898 767.505 959.362 767.797 960.504 767.797H962.986V769.035H959.933C957.273 769.035 955.774 768.361 955.774 767.013V760.928H952.15Z" fill="white"/>
<path d="M969.672 762.431H966.763V762.158C967.137 760.536 970.047 759.534 974.421 759.534C978.794 759.534 981.669 760.536 981.669 762.85V767.15C981.669 767.624 982.115 767.86 983.043 767.86H984.061V769.035H982.525C980.33 769.035 979.276 768.462 979.169 767.596H978.812C977.866 768.489 976.099 769.236 972.475 769.236C968.565 769.236 965.834 768.115 965.834 766.448C965.834 764.627 968.619 763.87 972.154 763.697L976.367 763.497C977.866 763.424 978.67 763.215 978.67 762.504C978.67 761.32 977.116 760.728 974.367 760.728C971.618 760.728 969.779 761.302 969.672 762.431ZM968.94 766.394C968.94 767.387 970.565 768.043 972.975 768.043C975.867 768.043 978.687 767.177 978.687 764.936V764.317H978.33C977.777 764.49 977.241 764.59 975.635 764.672L972.868 764.809C970.369 764.945 968.94 765.383 968.94 766.394Z" fill="white"/>
<path d="M987.461 769.035V755.918H990.603V769.035H987.461Z" fill="white"/>
<path d="M359.656 798.185V785.259H362.709V786.58H363.066C363.905 785.833 365.708 785.05 369.153 785.05C373.884 785.05 377.49 786.689 377.49 789.905C377.49 793.111 373.884 794.751 369.153 794.751C365.708 794.751 363.959 793.968 363.155 793.284H362.798V798.185H359.656ZM362.673 789.905C362.673 792.209 365.03 793.485 368.511 793.485C371.974 793.485 374.33 792.209 374.33 789.905C374.33 787.591 371.974 786.316 368.511 786.316C365.03 786.316 362.673 787.591 362.673 789.905Z" fill="white"/>
<path d="M381.657 794.542V785.259H384.71V786.571H385.067C385.834 785.778 387.334 784.986 391.065 785.177V786.562C387.298 786.361 384.799 787.035 384.799 789.367V794.542H381.657Z" fill="white"/>
<path d="M392.981 789.905C392.981 786.771 396.658 785.041 402.085 785.041C407.512 785.041 411.189 786.771 411.189 789.905C411.189 793.029 407.512 794.76 402.085 794.76C396.658 794.76 392.981 793.029 392.981 789.905ZM396.176 789.905C396.176 792.255 398.55 793.512 402.085 793.512C405.62 793.512 407.994 792.255 407.994 789.905C407.994 787.546 405.62 786.288 402.085 786.288C398.55 786.288 396.176 787.546 396.176 789.905Z" fill="white"/>
<path d="M432.101 781.424V794.542H429.048V793.221H428.691C427.852 793.968 426.049 794.751 422.604 794.751C417.873 794.751 414.249 793.111 414.249 789.905C414.249 786.689 417.873 785.05 422.604 785.05C426.049 785.05 427.798 785.833 428.602 786.516H428.959V781.424H432.101ZM429.066 789.905C429.066 787.591 426.71 786.316 423.246 786.316C419.783 786.316 417.427 787.591 417.427 789.905C417.427 792.209 419.783 793.485 423.246 793.485C426.71 793.485 429.066 792.209 429.066 789.905Z" fill="white"/>
<path d="M452.995 785.259V794.542H449.942V793.23H449.585C448.96 793.822 447.443 794.751 443.765 794.751C439.802 794.751 437.16 793.631 437.16 791.499V785.259H440.302V791.39C440.302 792.847 441.998 793.494 444.515 793.494C447.371 793.494 449.853 792.547 449.853 790.615V785.259H452.995Z" fill="white"/>
<path d="M457.135 789.905C457.135 786.89 460.544 785.041 466.061 785.041C471.238 785.041 473.505 786.644 473.844 788.019V788.293H470.881C470.666 787.382 469.363 786.288 466.078 786.288C462.544 786.288 460.312 787.6 460.312 789.905C460.312 792.2 462.526 793.512 466.078 793.512C469.417 793.512 470.666 792.474 470.988 791.417H473.933V791.69C473.576 793.139 471.309 794.76 466.061 794.76C460.509 794.76 457.135 792.911 457.135 789.905Z" fill="white"/>
<path d="M475.944 786.434V785.259H479.568V782.699H482.692V785.259H486.887V786.434H482.692V792.492C482.692 793.011 483.156 793.303 484.299 793.303H486.78V794.542H483.728C481.068 794.542 479.568 793.867 479.568 792.519V786.434H475.944Z" fill="white"/>
<path d="M490.021 787.719C490.021 786.033 492.805 785.05 497.304 785.05C501.82 785.05 504.605 786.088 504.962 787.664V787.937H502.053C501.91 786.744 500.107 786.225 497.358 786.225C494.662 786.225 493.02 786.753 493.02 787.655C493.02 788.566 494.555 788.885 496.465 789.049L499.393 789.295C502.999 789.604 505.551 790.215 505.551 791.936C505.551 793.676 502.874 794.76 497.982 794.76C493.073 794.76 490.092 793.676 489.646 791.982V791.708H492.591C492.805 792.938 494.965 793.585 497.982 793.585C500.999 793.585 502.552 792.938 502.552 792.036C502.552 791.098 500.964 790.779 498.661 790.588L495.733 790.342C492.413 790.051 490.021 789.331 490.021 787.719Z" fill="white"/>
<path d="M536.003 781.424V794.542H532.95V793.221H532.593C531.754 793.968 529.951 794.751 526.506 794.751C521.775 794.751 518.151 793.111 518.151 789.905C518.151 786.689 521.775 785.05 526.506 785.05C529.951 785.05 531.7 785.833 532.504 786.516H532.861V781.424H536.003ZM532.968 789.905C532.968 787.591 530.611 786.316 527.148 786.316C523.685 786.316 521.329 787.591 521.329 789.905C521.329 792.209 523.685 793.485 527.148 793.485C530.611 793.485 532.968 792.209 532.968 789.905Z" fill="white"/>
<path d="M540.152 789.896C540.152 786.744 543.526 785.041 548.863 785.041C554.237 785.041 557.146 786.762 557.146 789.495V790.242H543.204C543.276 792.282 545.364 793.549 548.863 793.549C552.184 793.549 553.665 792.528 553.951 791.636H556.754V791.909C556.361 793.048 554.326 794.76 548.881 794.76C543.544 794.76 540.152 793.057 540.152 789.896ZM543.258 789.076H554.13C554.094 787.382 552.344 786.252 548.846 786.252C545.418 786.252 543.508 787.4 543.258 789.076Z" fill="white"/>
<path d="M560.486 787.719C560.486 786.033 563.27 785.05 567.769 785.05C572.286 785.05 575.07 786.088 575.427 787.664V787.937H572.518C572.375 786.744 570.572 786.225 567.823 786.225C565.127 786.225 563.485 786.753 563.485 787.655C563.485 788.566 565.02 788.885 566.93 789.049L569.858 789.295C573.464 789.604 576.016 790.215 576.016 791.936C576.016 793.676 573.339 794.76 568.447 794.76C563.538 794.76 560.557 793.676 560.111 791.982V791.708H563.056C563.27 792.938 565.43 793.585 568.447 793.585C571.464 793.585 573.017 792.938 573.017 792.036C573.017 791.098 571.429 790.779 569.126 790.588L566.198 790.342C562.878 790.051 560.486 789.331 560.486 787.719Z" fill="white"/>
<path d="M579.924 783.574V781.661H583.155V783.574H579.924ZM579.977 794.542V785.259H583.119V794.542H579.977Z" fill="white"/>
<path d="M587.256 789.759C587.256 786.625 590.88 785.05 595.575 785.05C598.913 785.05 600.663 785.824 601.484 786.498H601.841V785.259H604.894V794.177C604.894 796.864 602.127 798.404 596.343 798.404C590.684 798.404 588.042 796.937 587.738 795.37V795.097H590.648C590.827 796.19 592.415 797.183 596.289 797.183C600.181 797.183 601.752 796.163 601.752 794.241V793.075H601.395C600.52 793.74 598.824 794.459 595.575 794.459C590.88 794.459 587.256 792.893 587.256 789.759ZM590.434 789.759C590.434 791.982 592.737 793.202 596.146 793.202C599.556 793.202 601.859 791.982 601.859 789.759C601.859 787.536 599.556 786.316 596.146 786.316C592.737 786.316 590.434 787.536 590.434 789.759Z" fill="white"/>
<path d="M610.137 794.542V785.259H613.189V786.571H613.546C614.153 785.979 615.689 785.05 619.437 785.05C623.436 785.05 626.078 786.17 626.078 788.302V794.542H622.936V788.411C622.936 786.953 621.24 786.307 618.688 786.307C615.778 786.307 613.279 787.254 613.279 789.185V794.542H610.137Z" fill="white"/>
<path d="M639.391 781.333C640.676 781.333 641.771 781.448 642.676 781.679C643.604 781.898 644.318 782.214 644.818 782.627C645.318 783.039 645.567 783.544 645.567 784.139C645.567 784.904 645.08 785.554 644.104 786.088C643.152 786.622 641.938 787.108 640.462 787.546L647.353 790.934C647.971 790.558 648.471 790.127 648.852 789.641C649.257 789.143 649.59 788.608 649.852 788.037H653.029C652.649 788.815 652.173 789.537 651.601 790.205C651.03 790.873 650.292 791.456 649.388 791.954L654.6 794.542H650.352L647.246 793.011C646.674 793.266 646.079 793.503 645.46 793.722C644.865 793.928 644.211 794.104 643.497 794.25C642.783 794.396 642.009 794.511 641.176 794.596C640.367 794.681 639.462 794.724 638.463 794.724C636.82 794.724 635.392 794.59 634.178 794.323C632.988 794.044 632.06 793.637 631.393 793.102C630.751 792.568 630.429 791.918 630.429 791.153C630.429 790.533 630.644 789.999 631.072 789.55C631.524 789.1 632.167 788.699 633 788.347C633.833 787.995 634.809 787.655 635.928 787.327C635.428 787.035 634.94 786.732 634.464 786.416C633.988 786.1 633.595 785.76 633.286 785.396C632.976 785.019 632.821 784.612 632.821 784.175C632.821 783.58 633.083 783.07 633.607 782.645C634.13 782.22 634.88 781.898 635.856 781.679C636.856 781.448 638.034 781.333 639.391 781.333ZM637.82 788.329C636.963 788.584 636.225 788.845 635.606 789.112C635.011 789.367 634.547 789.653 634.214 789.969C633.881 790.284 633.714 790.661 633.714 791.098C633.714 791.766 634.154 792.301 635.035 792.701C635.916 793.102 637.094 793.303 638.57 793.303C640.093 793.303 641.402 793.175 642.497 792.92C643.592 792.665 644.508 792.361 645.246 792.009L637.82 788.329ZM639.284 782.645C638.284 782.645 637.463 782.778 636.82 783.046C636.201 783.313 635.892 783.683 635.892 784.157C635.892 784.594 636.118 785.001 636.57 785.378C637.022 785.742 637.677 786.149 638.534 786.598C639.938 786.185 640.938 785.797 641.533 785.432C642.152 785.056 642.461 784.625 642.461 784.139C642.461 783.701 642.176 783.343 641.604 783.064C641.033 782.784 640.26 782.645 639.284 782.645Z" fill="white"/>
<path d="M683.801 781.424V794.542H680.749V793.221H680.392C679.553 793.968 677.75 794.751 674.304 794.751C669.574 794.751 665.95 793.111 665.95 789.905C665.95 786.689 669.574 785.05 674.304 785.05C677.75 785.05 679.499 785.833 680.302 786.516H680.66V781.424H683.801ZM680.767 789.905C680.767 787.591 678.41 786.316 674.947 786.316C671.484 786.316 669.127 787.591 669.127 789.905C669.127 792.209 671.484 793.485 674.947 793.485C678.41 793.485 680.767 792.209 680.767 789.905Z" fill="white"/>
<path d="M687.951 789.896C687.951 786.744 691.324 785.041 696.662 785.041C702.035 785.041 704.945 786.762 704.945 789.495V790.242H691.003C691.075 792.282 693.163 793.549 696.662 793.549C699.982 793.549 701.464 792.528 701.75 791.636H704.553V791.909C704.16 793.048 702.125 794.76 696.68 794.76C691.342 794.76 687.951 793.057 687.951 789.896ZM691.057 789.076H701.928C701.893 787.382 700.143 786.252 696.644 786.252C693.217 786.252 691.307 787.4 691.057 789.076Z" fill="white"/>
<path d="M706.568 785.532V785.259H709.638L715.19 792.738H715.547L721.081 785.259H724.152V785.532L717.118 794.542H713.601L706.568 785.532Z" fill="white"/>
<path d="M725.781 789.896C725.781 786.744 729.155 785.041 734.492 785.041C739.865 785.041 742.775 786.762 742.775 789.495V790.242H728.833C728.905 792.282 730.993 793.549 734.492 793.549C737.813 793.549 739.294 792.528 739.58 791.636H742.383V791.909C741.99 793.048 739.955 794.76 734.51 794.76C729.172 794.76 725.781 793.057 725.781 789.896ZM728.887 789.076H739.758C739.723 787.382 737.973 786.252 734.474 786.252C731.047 786.252 729.137 787.4 728.887 789.076Z" fill="white"/>
<path d="M746.918 794.542V781.424H750.06V794.542H746.918Z" fill="white"/>
<path d="M754.197 789.905C754.197 786.771 757.874 785.041 763.301 785.041C768.728 785.041 772.405 786.771 772.405 789.905C772.405 793.029 768.728 794.76 763.301 794.76C757.874 794.76 754.197 793.029 754.197 789.905ZM757.392 789.905C757.392 792.255 759.766 793.512 763.301 793.512C766.836 793.512 769.21 792.255 769.21 789.905C769.21 787.546 766.836 786.288 763.301 786.288C759.766 786.288 757.392 787.546 757.392 789.905Z" fill="white"/>
<path d="M776.554 798.185V785.259H779.607V786.58H779.964C780.803 785.833 782.606 785.05 786.051 785.05C790.782 785.05 794.388 786.689 794.388 789.905C794.388 793.111 790.782 794.751 786.051 794.751C782.606 794.751 780.856 793.968 780.053 793.284H779.696V798.185H776.554ZM779.571 789.905C779.571 792.209 781.927 793.485 785.409 793.485C788.872 793.485 791.228 792.209 791.228 789.905C791.228 787.591 788.872 786.316 785.409 786.316C781.927 786.316 779.571 787.591 779.571 789.905Z" fill="white"/>
<path d="M798.555 794.542V785.259H801.572V786.434H801.929C802.679 785.787 804.018 785.05 807.32 785.05C810.462 785.05 811.979 785.888 812.515 786.689H812.872C813.711 785.86 815.353 785.05 818.727 785.05C822.048 785.05 824.797 785.988 824.797 788.156V794.542H821.673V788.265C821.673 787.063 820.387 786.307 817.924 786.307C815.175 786.307 813.229 787.208 813.229 789.021V794.542H810.105V788.265C810.105 787.063 808.873 786.307 806.41 786.307C803.607 786.307 801.661 787.208 801.661 789.021V794.542H798.555Z" fill="white"/>
<path d="M828.776 789.896C828.776 786.744 832.15 785.041 837.488 785.041C842.861 785.041 845.771 786.762 845.771 789.495V790.242H831.829C831.9 792.282 833.989 793.549 837.488 793.549C840.808 793.549 842.29 792.528 842.575 791.636H845.378V791.909C844.985 793.048 842.95 794.76 837.505 794.76C832.168 794.76 828.776 793.057 828.776 789.896ZM831.882 789.076H842.754C842.718 787.382 840.969 786.252 837.47 786.252C834.042 786.252 832.132 787.4 831.882 789.076Z" fill="white"/>
<path d="M849.913 794.542V785.259H852.966V786.571H853.323C853.93 785.979 855.465 785.05 859.214 785.05C863.213 785.05 865.855 786.17 865.855 788.302V794.542H862.713V788.411C862.713 786.953 861.017 786.307 858.464 786.307C855.554 786.307 853.055 787.254 853.055 789.185V794.542H849.913Z" fill="white"/>
<path d="M868.749 786.434V785.259H872.373V782.699H875.497V785.259H879.692V786.434H875.497V792.492C875.497 793.011 875.961 793.303 877.104 793.303H879.585V794.542H876.533C873.873 794.542 872.373 793.867 872.373 792.519V786.434H868.749Z" fill="white"/>
<path d="M892.728 787.719C892.728 786.033 895.513 785.05 900.011 785.05C904.528 785.05 907.312 786.088 907.67 787.664V787.937H904.76C904.617 786.744 902.814 786.225 900.065 786.225C897.369 786.225 895.727 786.753 895.727 787.655C895.727 788.566 897.262 788.885 899.172 789.049L902.1 789.295C905.706 789.604 908.259 790.215 908.259 791.936C908.259 793.676 905.581 794.76 900.69 794.76C895.78 794.76 892.799 793.676 892.353 791.982V791.708H895.298C895.513 792.938 897.673 793.585 900.69 793.585C903.706 793.585 905.26 792.938 905.26 792.036C905.26 791.098 903.671 790.779 901.368 790.588L898.44 790.342C895.12 790.051 892.728 789.331 892.728 787.719Z" fill="white"/>
<path d="M910.136 786.434V785.259H913.76V782.699H916.884V785.259H921.079V786.434H916.884V792.492C916.884 793.011 917.348 793.303 918.49 793.303H920.972V794.542H917.919C915.259 794.542 913.76 793.867 913.76 792.519V786.434H910.136Z" fill="white"/>
<path d="M940.706 785.259V794.542H937.654V793.23H937.297C936.672 793.822 935.154 794.751 931.477 794.751C927.514 794.751 924.872 793.631 924.872 791.499V785.259H928.014V791.39C928.014 792.847 929.71 793.494 932.227 793.494C935.083 793.494 937.564 792.547 937.564 790.615V785.259H940.706Z" fill="white"/>
<path d="M962.698 781.424V794.542H959.645V793.221H959.288C958.449 793.968 956.646 794.751 953.201 794.751C948.47 794.751 944.846 793.111 944.846 789.905C944.846 786.689 948.47 785.05 953.201 785.05C956.646 785.05 958.396 785.833 959.199 786.516H959.556V781.424H962.698ZM959.663 789.905C959.663 787.591 957.307 786.316 953.844 786.316C950.38 786.316 948.024 787.591 948.024 789.905C948.024 792.209 950.38 793.485 953.844 793.485C957.307 793.485 959.663 792.209 959.663 789.905Z" fill="white"/>
<path d="M967.882 783.574V781.661H971.114V783.574H967.882ZM967.936 794.542V785.259H971.078V794.542H967.936Z" fill="white"/>
<path d="M975.215 789.905C975.215 786.771 978.892 785.041 984.319 785.041C989.746 785.041 993.424 786.771 993.424 789.905C993.424 793.029 989.746 794.76 984.319 794.76C978.892 794.76 975.215 793.029 975.215 789.905ZM978.41 789.905C978.41 792.255 980.785 793.512 984.319 793.512C987.854 793.512 990.228 792.255 990.228 789.905C990.228 787.546 987.854 786.288 984.319 786.288C980.785 786.288 978.41 787.546 978.41 789.905Z" fill="white"/>
<path d="M357.782 811.94V810.765H361.406V808.205H364.53V810.765H368.725V811.94H364.53V817.998C364.53 818.517 364.994 818.809 366.137 818.809H368.618V820.048H365.565C362.905 820.048 361.406 819.373 361.406 818.025V811.94H357.782Z" fill="white"/>
<path d="M372.696 820.048V806.93H375.838V812.05H376.195C376.838 811.439 378.373 810.556 381.997 810.556C385.996 810.556 388.638 811.676 388.638 813.808V820.048H385.496V813.917C385.496 812.46 383.8 811.813 381.247 811.813C378.337 811.813 375.838 812.76 375.838 814.691V820.048H372.696Z" fill="white"/>
<path d="M396.399 813.443H393.489V813.17C393.864 811.549 396.773 810.547 401.147 810.547C405.521 810.547 408.395 811.549 408.395 813.862V818.162C408.395 818.636 408.841 818.872 409.769 818.872H410.787V820.048H409.252C407.056 820.048 406.003 819.474 405.896 818.608H405.539C404.592 819.501 402.825 820.248 399.201 820.248C395.292 820.248 392.561 819.128 392.561 817.46C392.561 815.639 395.345 814.883 398.88 814.71L403.093 814.509C404.592 814.436 405.396 814.227 405.396 813.516C405.396 812.332 403.843 811.74 401.094 811.74C398.344 811.74 396.506 812.314 396.399 813.443ZM395.667 817.406C395.667 818.399 397.291 819.055 399.701 819.055C402.593 819.055 405.414 818.189 405.414 815.948V815.329H405.057C404.503 815.502 403.968 815.602 402.361 815.684L399.594 815.821C397.095 815.957 395.667 816.395 395.667 817.406Z" fill="white"/>
<path d="M411.406 811.94V810.765H415.03V808.205H418.154V810.765H422.35V811.94H418.154V817.998C418.154 818.517 418.619 818.809 419.761 818.809H422.242V820.048H419.19C416.53 820.048 415.03 819.373 415.03 818.025V811.94H411.406Z" fill="white"/>
<path d="M436.188 823.691V810.765H439.241V812.086H439.598C440.437 811.339 442.24 810.556 445.685 810.556C450.416 810.556 454.022 812.195 454.022 815.411C454.022 818.617 450.416 820.257 445.685 820.257C442.24 820.257 440.49 819.474 439.687 818.79H439.33V823.691H436.188ZM439.205 815.411C439.205 817.716 441.561 818.991 445.043 818.991C448.506 818.991 450.862 817.716 450.862 815.411C450.862 813.097 448.506 811.822 445.043 811.822C441.561 811.822 439.205 813.097 439.205 815.411Z" fill="white"/>
<path d="M460.867 813.443H457.957V813.17C458.332 811.549 461.242 810.547 465.615 810.547C469.989 810.547 472.863 811.549 472.863 813.862V818.162C472.863 818.636 473.309 818.872 474.237 818.872H475.255V820.048H473.72C471.524 820.048 470.471 819.474 470.364 818.608H470.007C469.061 819.501 467.293 820.248 463.669 820.248C459.76 820.248 457.029 819.128 457.029 817.46C457.029 815.639 459.813 814.883 463.348 814.71L467.561 814.509C469.061 814.436 469.864 814.227 469.864 813.516C469.864 812.332 468.311 811.74 465.562 811.74C462.812 811.74 460.974 812.314 460.867 813.443ZM460.135 817.406C460.135 818.399 461.759 819.055 464.169 819.055C467.061 819.055 469.882 818.189 469.882 815.948V815.329H469.525C468.971 815.502 468.436 815.602 466.829 815.684L464.062 815.821C461.563 815.957 460.135 816.395 460.135 817.406Z" fill="white"/>
<path d="M477.748 813.225C477.748 811.539 480.532 810.556 485.031 810.556C489.547 810.556 492.332 811.594 492.689 813.17V813.443H489.78C489.637 812.25 487.834 811.731 485.085 811.731C482.389 811.731 480.747 812.259 480.747 813.161C480.747 814.072 482.282 814.391 484.192 814.555L487.12 814.801C490.726 815.11 493.278 815.721 493.278 817.442C493.278 819.182 490.601 820.266 485.709 820.266C480.8 820.266 477.819 819.182 477.373 817.488V817.215H480.318C480.532 818.444 482.692 819.091 485.709 819.091C488.726 819.091 490.279 818.444 490.279 817.542C490.279 816.604 488.691 816.285 486.388 816.094L483.46 815.848C480.14 815.557 477.748 814.837 477.748 813.225Z" fill="white"/>
<path d="M496.436 813.225C496.436 811.539 499.221 810.556 503.719 810.556C508.236 810.556 511.021 811.594 511.378 813.17V813.443H508.468C508.325 812.25 506.522 811.731 503.773 811.731C501.077 811.731 499.435 812.259 499.435 813.161C499.435 814.072 500.97 814.391 502.88 814.555L505.808 814.801C509.414 815.11 511.967 815.721 511.967 817.442C511.967 819.182 509.289 820.266 504.398 820.266C499.489 820.266 496.507 819.182 496.061 817.488V817.215H499.007C499.221 818.444 501.381 819.091 504.398 819.091C507.415 819.091 508.968 818.444 508.968 817.542C508.968 816.604 507.379 816.285 505.076 816.094L502.148 815.848C498.828 815.557 496.436 814.837 496.436 813.225Z" fill="white"/>
<path d="M515.874 809.08V807.167H519.105V809.08H515.874ZM515.928 820.048V810.765H519.07V820.048H515.928Z" fill="white"/>
<path d="M523.207 815.411C523.207 812.277 526.884 810.547 532.311 810.547C537.738 810.547 541.415 812.277 541.415 815.411C541.415 818.535 537.738 820.266 532.311 820.266C526.884 820.266 523.207 818.535 523.207 815.411ZM526.402 815.411C526.402 817.761 528.776 819.018 532.311 819.018C535.846 819.018 538.22 817.761 538.22 815.411C538.22 813.052 535.846 811.794 532.311 811.794C528.776 811.794 526.402 813.052 526.402 815.411Z" fill="white"/>
<path d="M545.564 820.048V810.765H548.617V812.077H548.974C549.581 811.485 551.116 810.556 554.865 810.556C558.864 810.556 561.506 811.676 561.506 813.808V820.048H558.364V813.917C558.364 812.46 556.668 811.813 554.115 811.813C551.205 811.813 548.706 812.76 548.706 814.691V820.048H545.564Z" fill="white"/>
<path d="M569.266 813.443H566.357V813.17C566.731 811.549 569.641 810.547 574.015 810.547C578.388 810.547 581.263 811.549 581.263 813.862V818.162C581.263 818.636 581.709 818.872 582.637 818.872H583.655V820.048H582.12C579.924 820.048 578.87 819.474 578.763 818.608H578.406C577.46 819.501 575.693 820.248 572.069 820.248C568.16 820.248 565.428 819.128 565.428 817.46C565.428 815.639 568.213 814.883 571.748 814.71L575.961 814.509C577.46 814.436 578.264 814.227 578.264 813.516C578.264 812.332 576.71 811.74 573.961 811.74C571.212 811.74 569.373 812.314 569.266 813.443ZM568.534 817.406C568.534 818.399 570.159 819.055 572.569 819.055C575.461 819.055 578.281 818.189 578.281 815.948V815.329H577.924C577.371 815.502 576.835 815.602 575.229 815.684L572.462 815.821C569.963 815.957 568.534 816.395 568.534 817.406Z" fill="white"/>
<path d="M584.274 811.94V810.765H587.898V808.205H591.022V810.765H595.217V811.94H591.022V817.998C591.022 818.517 591.486 818.809 592.629 818.809H595.11V820.048H592.058C589.398 820.048 587.898 819.373 587.898 818.025V811.94H584.274Z" fill="white"/>
<path d="M597.577 815.402C597.577 812.25 600.951 810.547 606.288 810.547C611.662 810.547 614.571 812.268 614.571 815.001V815.748H600.629C600.701 817.788 602.789 819.055 606.288 819.055C609.609 819.055 611.09 818.034 611.376 817.142H614.179V817.415C613.786 818.554 611.751 820.266 606.306 820.266C600.969 820.266 597.577 818.563 597.577 815.402ZM600.683 814.582H611.555C611.519 812.888 609.769 811.758 606.271 811.758C602.843 811.758 600.933 812.906 600.683 814.582Z" fill="white"/>
<path d="M626.496 811.038V810.765H629.37L632.94 818.125H633.297L637.582 810.765H640.777L645.061 818.125H645.419L648.989 810.765H651.845V811.038L647.293 820.048H643.615L639.349 812.724H638.992L634.708 820.048H631.048L626.496 811.038Z" fill="white"/>
<path d="M655.096 809.08V807.167H658.327V809.08H655.096ZM655.149 820.048V810.765H658.291V820.048H655.149Z" fill="white"/>
<path d="M661.643 811.94V810.765H665.267V808.205H668.391V810.765H672.586V811.94H668.391V817.998C668.391 818.517 668.855 818.809 669.997 818.809H672.479V820.048H669.426C666.766 820.048 665.267 819.373 665.267 818.025V811.94H661.643Z" fill="white"/>
<path d="M676.557 820.048V806.93H679.699V812.05H680.056C680.699 811.439 682.234 810.556 685.858 810.556C689.857 810.556 692.499 811.676 692.499 813.808V820.048H689.357V813.917C689.357 812.46 687.661 811.813 685.108 811.813C682.198 811.813 679.699 812.76 679.699 814.691V820.048H676.557Z" fill="white"/>
<path d="M705.017 811.94V810.765H708.641V808.205H711.765V810.765H715.96V811.94H711.765V817.998C711.765 818.517 712.229 818.809 713.371 818.809H715.853V820.048H712.8C710.14 820.048 708.641 819.373 708.641 818.025V811.94H705.017Z" fill="white"/>
<path d="M719.931 820.048V806.93H723.073V812.05H723.43C724.073 811.439 725.608 810.556 729.232 810.556C733.231 810.556 735.873 811.676 735.873 813.808V820.048H732.731V813.917C732.731 812.46 731.035 811.813 728.482 811.813C725.572 811.813 723.073 812.76 723.073 814.691V820.048H719.931Z" fill="white"/>
<path d="M739.867 815.402C739.867 812.25 743.241 810.547 748.578 810.547C753.952 810.547 756.861 812.268 756.861 815.001V815.748H742.919C742.991 817.788 745.079 819.055 748.578 819.055C751.899 819.055 753.38 818.034 753.666 817.142H756.469V817.415C756.076 818.554 754.041 820.266 748.596 820.266C743.258 820.266 739.867 818.563 739.867 815.402ZM742.973 814.582H753.844C753.809 812.888 752.059 811.758 748.56 811.758C745.133 811.758 743.223 812.906 742.973 814.582Z" fill="white"/>
<path d="M769.503 815.411C769.503 812.396 772.913 810.547 778.429 810.547C783.606 810.547 785.873 812.15 786.212 813.525V813.799H783.249C783.035 812.888 781.731 811.794 778.447 811.794C774.912 811.794 772.681 813.106 772.681 815.411C772.681 817.706 774.894 819.018 778.447 819.018C781.785 819.018 783.035 817.98 783.356 816.923H786.301V817.196C785.944 818.645 783.677 820.266 778.429 820.266C772.877 820.266 769.503 818.417 769.503 815.411Z" fill="white"/>
<path d="M790.187 820.048V810.765H793.24V812.077H793.597C794.364 811.284 795.864 810.492 799.595 810.683V812.068C795.828 811.867 793.329 812.542 793.329 814.873V820.048H790.187Z" fill="white"/>
<path d="M801.51 815.402C801.51 812.25 804.884 810.547 810.222 810.547C815.595 810.547 818.505 812.268 818.505 815.001V815.748H804.563C804.635 817.788 806.723 819.055 810.222 819.055C813.542 819.055 815.024 818.034 815.31 817.142H818.112V817.415C817.72 818.554 815.685 820.266 810.24 820.266C804.902 820.266 801.51 818.563 801.51 815.402ZM804.617 814.582H815.488C815.453 812.888 813.703 811.758 810.204 811.758C806.777 811.758 804.867 812.906 804.617 814.582Z" fill="white"/>
<path d="M825.325 813.443H822.416V813.17C822.79 811.549 825.7 810.547 830.074 810.547C834.448 810.547 837.322 811.549 837.322 813.862V818.162C837.322 818.636 837.768 818.872 838.696 818.872H839.714V820.048H838.179C835.983 820.048 834.93 819.474 834.822 818.608H834.465C833.519 819.501 831.752 820.248 828.128 820.248C824.219 820.248 821.487 819.128 821.487 817.46C821.487 815.639 824.272 814.883 827.807 814.71L832.02 814.509C833.519 814.436 834.323 814.227 834.323 813.516C834.323 812.332 832.769 811.74 830.02 811.74C827.271 811.74 825.432 812.314 825.325 813.443ZM824.593 817.406C824.593 818.399 826.218 819.055 828.628 819.055C831.52 819.055 834.34 818.189 834.34 815.948V815.329H833.983C833.43 815.502 832.894 815.602 831.288 815.684L828.521 815.821C826.022 815.957 824.593 816.395 824.593 817.406Z" fill="white"/>
<path d="M840.333 811.94V810.765H843.957V808.205H847.081V810.765H851.276V811.94H847.081V817.998C847.081 818.517 847.545 818.809 848.688 818.809H851.169V820.048H848.117C845.457 820.048 843.957 819.373 843.957 818.025V811.94H840.333Z" fill="white"/>
<path d="M855.194 809.08V807.167H858.425V809.08H855.194ZM855.248 820.048V810.765H858.39V820.048H855.248Z" fill="white"/>
<path d="M862.527 815.411C862.527 812.277 866.204 810.547 871.631 810.547C877.058 810.547 880.735 812.277 880.735 815.411C880.735 818.535 877.058 820.266 871.631 820.266C866.204 820.266 862.527 818.535 862.527 815.411ZM865.722 815.411C865.722 817.761 868.096 819.018 871.631 819.018C875.166 819.018 877.54 817.761 877.54 815.411C877.54 813.052 875.166 811.794 871.631 811.794C868.096 811.794 865.722 813.052 865.722 815.411Z" fill="white"/>
<path d="M884.884 820.048V810.765H887.937V812.077H888.294C888.901 811.485 890.436 810.556 894.185 810.556C898.184 810.556 900.826 811.676 900.826 813.808V820.048H897.684V813.917C897.684 812.46 895.988 811.813 893.435 811.813C890.525 811.813 888.026 812.76 888.026 814.691V820.048H884.884Z" fill="white"/>
<path d="M915.776 820.048V806.93H918.918V812.05H919.275C919.917 811.439 921.453 810.556 925.076 810.556C929.075 810.556 931.717 811.676 931.717 813.808V820.048H928.575V813.917C928.575 812.46 926.88 811.813 924.327 811.813C921.417 811.813 918.918 812.76 918.918 814.691V820.048H915.776Z" fill="white"/>
<path d="M936.747 809.08V807.167H939.978V809.08H936.747ZM936.8 820.048V810.765H939.942V820.048H936.8Z" fill="white"/>
<path d="M944.079 815.265C944.079 812.132 947.703 810.556 952.398 810.556C955.736 810.556 957.486 811.33 958.307 812.004H958.664V810.765H961.717V819.683C961.717 822.37 958.95 823.91 953.166 823.91C947.507 823.91 944.865 822.443 944.561 820.876V820.603H947.471C947.65 821.696 949.238 822.689 953.112 822.689C957.004 822.689 958.575 821.669 958.575 819.747V818.581H958.218C957.343 819.246 955.647 819.966 952.398 819.966C947.703 819.966 944.079 818.399 944.079 815.265ZM947.257 815.265C947.257 817.488 949.56 818.708 952.969 818.708C956.379 818.708 958.682 817.488 958.682 815.265C958.682 813.042 956.379 811.822 952.969 811.822C949.56 811.822 947.257 813.042 947.257 815.265Z" fill="white"/>
<path d="M966.96 820.048V806.93H970.102V812.05H970.459C971.101 811.439 972.637 810.556 976.26 810.556C980.259 810.556 982.901 811.676 982.901 813.808V820.048H979.759V813.917C979.759 812.46 978.063 811.813 975.511 811.813C972.601 811.813 970.102 812.76 970.102 814.691V820.048H966.96Z" fill="white"/>
<path d="M362.334 838.949H359.424V838.676C359.799 837.055 362.709 836.053 367.083 836.053C371.456 836.053 374.33 837.055 374.33 839.368V843.668C374.33 844.142 374.777 844.378 375.705 844.378H376.723V845.554H375.187C372.992 845.554 371.938 844.98 371.831 844.114H371.474C370.528 845.007 368.761 845.754 365.137 845.754C361.227 845.754 358.496 844.634 358.496 842.966C358.496 841.145 361.281 840.389 364.815 840.216L369.028 840.015C370.528 839.942 371.331 839.733 371.331 839.022C371.331 837.838 369.778 837.246 367.029 837.246C364.28 837.246 362.441 837.82 362.334 838.949ZM361.602 842.912C361.602 843.905 363.227 844.561 365.637 844.561C368.529 844.561 371.349 843.695 371.349 841.454V840.835H370.992C370.439 841.008 369.903 841.108 368.297 841.19L365.53 841.327C363.03 841.464 361.602 841.901 361.602 842.912Z" fill="white"/>
<path d="M380.123 849.197V836.271H383.176V837.592H383.533C384.372 836.845 386.175 836.062 389.62 836.062C394.351 836.062 397.957 837.701 397.957 840.917C397.957 844.123 394.351 845.763 389.62 845.763C386.175 845.763 384.425 844.98 383.622 844.297H383.265V849.197H380.123ZM383.14 840.917C383.14 843.222 385.496 844.497 388.977 844.497C392.441 844.497 394.797 843.222 394.797 840.917C394.797 838.603 392.441 837.328 388.977 837.328C385.496 837.328 383.14 838.603 383.14 840.917Z" fill="white"/>
<path d="M402.124 849.197V836.271H405.176V837.592H405.533C406.372 836.845 408.175 836.062 411.621 836.062C416.351 836.062 419.957 837.701 419.957 840.917C419.957 844.123 416.351 845.763 411.621 845.763C408.175 845.763 406.426 844.98 405.623 844.297H405.266V849.197H402.124ZM405.141 840.917C405.141 843.222 407.497 844.497 410.978 844.497C414.441 844.497 416.798 843.222 416.798 840.917C416.798 838.603 414.441 837.328 410.978 837.328C407.497 837.328 405.141 838.603 405.141 840.917Z" fill="white"/>
<path d="M424.124 845.554V832.436H427.266V845.554H424.124Z" fill="white"/>
<path d="M432.439 834.586V832.673H435.67V834.586H432.439ZM432.492 845.554V836.271H435.634V845.554H432.492Z" fill="white"/>
<path d="M439.771 840.917C439.771 837.902 443.181 836.053 448.697 836.053C453.874 836.053 456.141 837.656 456.48 839.031V839.305H453.517C453.303 838.394 452 837.301 448.715 837.301C445.18 837.301 442.949 838.612 442.949 840.917C442.949 843.212 445.163 844.524 448.715 844.524C452.053 844.524 453.303 843.486 453.624 842.429H456.57V842.702C456.213 844.151 453.945 845.772 448.697 845.772C443.145 845.772 439.771 843.923 439.771 840.917Z" fill="white"/>
<path d="M463.133 838.949H460.223V838.676C460.598 837.055 463.508 836.053 467.881 836.053C472.255 836.053 475.129 837.055 475.129 839.368V843.668C475.129 844.142 475.576 844.378 476.504 844.378H477.521V845.554H475.986C473.79 845.554 472.737 844.98 472.63 844.114H472.273C471.327 845.007 469.56 845.754 465.936 845.754C462.026 845.754 459.295 844.634 459.295 842.966C459.295 841.145 462.08 840.389 465.614 840.216L469.827 840.015C471.327 839.942 472.13 839.733 472.13 839.022C472.13 837.838 470.577 837.246 467.828 837.246C465.079 837.246 463.24 837.82 463.133 838.949ZM462.401 842.912C462.401 843.905 464.026 844.561 466.435 844.561C469.327 844.561 472.148 843.695 472.148 841.454V840.835H471.791C471.238 841.008 470.702 841.108 469.095 841.19L466.328 841.327C463.829 841.464 462.401 841.901 462.401 842.912Z" fill="white"/>
<path d="M480.922 845.554V832.436H484.064V837.528H484.421C485.224 836.845 486.974 836.062 490.419 836.062C495.15 836.062 498.756 837.701 498.756 840.917C498.756 844.123 495.15 845.763 490.419 845.763C486.974 845.763 485.17 844.98 484.331 844.233H483.974V845.554H480.922ZM483.939 840.917C483.939 843.222 486.295 844.497 489.776 844.497C493.239 844.497 495.596 843.222 495.596 840.917C495.596 838.603 493.239 837.328 489.776 837.328C486.295 837.328 483.939 838.603 483.939 840.917Z" fill="white"/>
<path d="M502.869 834.586V832.673H506.1V834.586H502.869ZM502.923 845.554V836.271H506.064V845.554H502.923Z" fill="white"/>
<path d="M511.29 845.554V832.436H514.432V845.554H511.29Z" fill="white"/>
<path d="M519.605 834.586V832.673H522.836V834.586H519.605ZM519.658 845.554V836.271H522.8V845.554H519.658Z" fill="white"/>
<path d="M526.152 837.446V836.271H529.776V833.711H532.9V836.271H537.095V837.446H532.9V843.504C532.9 844.023 533.364 844.315 534.506 844.315H536.988V845.554H533.935C531.275 845.554 529.776 844.88 529.776 843.531V837.446H526.152Z" fill="white"/>
<path d="M539.174 836.544V836.271H542.245L547.939 843.969H548.296L553.991 836.271H557.061V836.544L548.6 847.348C547.457 848.842 545.993 849.197 542.941 849.197H541.227V847.94H542.619C544.44 847.94 544.976 847.794 545.619 847.011L546.493 845.936L539.174 836.544Z" fill="white"/>
<path d="M569.056 840.917C569.056 837.783 572.733 836.053 578.16 836.053C583.587 836.053 587.265 837.783 587.265 840.917C587.265 844.041 583.587 845.772 578.16 845.772C572.733 845.772 569.056 844.041 569.056 840.917ZM572.251 840.917C572.251 843.267 574.626 844.524 578.16 844.524C581.695 844.524 584.069 843.267 584.069 840.917C584.069 838.558 581.695 837.301 578.16 837.301C574.626 837.301 572.251 838.558 572.251 840.917Z" fill="white"/>
<path d="M592.586 837.446H589.051V836.271H592.586V834.686C592.586 833.174 594.21 832.436 597.156 832.436H600.244V833.602H597.709C596.263 833.602 595.692 833.948 595.692 834.677V836.271H599.905V837.446H595.692V845.554H592.586V837.446Z" fill="white"/>
<path d="M629.828 832.436V845.554H626.776V844.233H626.419C625.58 844.98 623.776 845.763 620.331 845.763C615.6 845.763 611.977 844.123 611.977 840.917C611.977 837.701 615.6 836.062 620.331 836.062C623.776 836.062 625.526 836.845 626.329 837.528H626.686V832.436H629.828ZM626.793 840.917C626.793 838.603 624.437 837.328 620.974 837.328C617.511 837.328 615.154 838.603 615.154 840.917C615.154 843.222 617.511 844.497 620.974 844.497C624.437 844.497 626.793 843.222 626.793 840.917Z" fill="white"/>
<path d="M635.013 834.586V832.673H638.244V834.586H635.013ZM635.066 845.554V836.271H638.208V845.554H635.066Z" fill="white"/>
<path d="M642.345 840.771C642.345 837.638 645.969 836.062 650.664 836.062C654.002 836.062 655.752 836.836 656.573 837.51H656.93V836.271H659.983V845.189C659.983 847.876 657.216 849.416 651.432 849.416C645.773 849.416 643.131 847.949 642.827 846.383V846.109H645.737C645.916 847.202 647.504 848.195 651.378 848.195C655.27 848.195 656.841 847.175 656.841 845.253V844.087H656.484C655.609 844.752 653.913 845.472 650.664 845.472C645.969 845.472 642.345 843.905 642.345 840.771ZM645.523 840.771C645.523 842.994 647.826 844.215 651.235 844.215C654.645 844.215 656.948 842.994 656.948 840.771C656.948 838.549 654.645 837.328 651.235 837.328C647.826 837.328 645.523 838.549 645.523 840.771Z" fill="white"/>
<path d="M665.172 834.586V832.673H668.403V834.586H665.172ZM665.226 845.554V836.271H668.368V845.554H665.226Z" fill="white"/>
<path d="M671.719 837.446V836.271H675.343V833.711H678.467V836.271H682.662V837.446H678.467V843.504C678.467 844.023 678.931 844.315 680.074 844.315H682.555V845.554H679.503C676.843 845.554 675.343 844.88 675.343 843.531V837.446H671.719Z" fill="white"/>
<path d="M689.242 838.949H686.332V838.676C686.707 837.055 689.617 836.053 693.99 836.053C698.364 836.053 701.238 837.055 701.238 839.368V843.668C701.238 844.142 701.684 844.378 702.613 844.378H703.63V845.554H702.095C699.899 845.554 698.846 844.98 698.739 844.114H698.382C697.436 845.007 695.668 845.754 692.044 845.754C688.135 845.754 685.404 844.634 685.404 842.966C685.404 841.145 688.188 840.389 691.723 840.216L695.936 840.015C697.436 839.942 698.239 839.733 698.239 839.022C698.239 837.838 696.686 837.246 693.937 837.246C691.188 837.246 689.349 837.82 689.242 838.949ZM688.51 842.912C688.51 843.905 690.134 844.561 692.544 844.561C695.436 844.561 698.257 843.695 698.257 841.454V840.835H697.9C697.346 841.008 696.811 841.108 695.204 841.19L692.437 841.327C689.938 841.464 688.51 841.901 688.51 842.912Z" fill="white"/>
<path d="M707.031 845.554V832.436H710.172V845.554H707.031Z" fill="white"/>
<path d="M724.037 840.908C724.037 837.756 727.411 836.053 732.749 836.053C738.122 836.053 741.032 837.774 741.032 840.507V841.254H727.09C727.161 843.294 729.25 844.561 732.749 844.561C736.069 844.561 737.551 843.54 737.837 842.648H740.639V842.921C740.247 844.06 738.211 845.772 732.767 845.772C727.429 845.772 724.037 844.069 724.037 840.908ZM727.143 840.088H738.015C737.979 838.394 736.23 837.264 732.731 837.264C729.304 837.264 727.393 838.412 727.143 840.088Z" fill="white"/>
<path d="M742.858 836.544V836.271H746.054L751.07 839.724H751.427L756.461 836.271H759.639V836.544L753.23 840.826L759.96 845.28V845.554H756.747L751.409 841.937H751.052L745.733 845.554H742.537V845.28L749.249 840.826L742.858 836.544Z" fill="white"/>
<path d="M763.514 849.197V836.271H766.567V837.592H766.924C767.763 836.845 769.566 836.062 773.011 836.062C777.742 836.062 781.348 837.701 781.348 840.917C781.348 844.123 777.742 845.763 773.011 845.763C769.566 845.763 767.816 844.98 767.013 844.297H766.656V849.197H763.514ZM766.531 840.917C766.531 843.222 768.887 844.497 772.369 844.497C775.832 844.497 778.188 843.222 778.188 840.917C778.188 838.603 775.832 837.328 772.369 837.328C768.887 837.328 766.531 838.603 766.531 840.917Z" fill="white"/>
<path d="M784.426 840.908C784.426 837.756 787.8 836.053 793.138 836.053C798.511 836.053 801.421 837.774 801.421 840.507V841.254H787.479C787.55 843.294 789.639 844.561 793.138 844.561C796.458 844.561 797.94 843.54 798.225 842.648H801.028V842.921C800.635 844.06 798.6 845.772 793.155 845.772C787.818 845.772 784.426 844.069 784.426 840.908ZM787.532 840.088H798.404C798.368 838.394 796.619 837.264 793.12 837.264C789.692 837.264 787.782 838.412 787.532 840.088Z" fill="white"/>
<path d="M805.563 845.554V836.271H808.616V837.583H808.973C809.74 836.79 811.24 835.998 814.971 836.189V837.574C811.204 837.373 808.705 838.048 808.705 840.38V845.554H805.563Z" fill="white"/>
<path d="M818.445 834.586V832.673H821.676V834.586H818.445ZM818.499 845.554V836.271H821.64V845.554H818.499Z" fill="white"/>
<path d="M825.777 840.908C825.777 837.756 829.151 836.053 834.489 836.053C839.862 836.053 842.772 837.774 842.772 840.507V841.254H828.83C828.902 843.294 830.99 844.561 834.489 844.561C837.809 844.561 839.291 843.54 839.577 842.648H842.38V842.921C841.987 844.06 839.952 845.772 834.507 845.772C829.169 845.772 825.777 844.069 825.777 840.908ZM828.884 840.088H839.755C839.72 838.394 837.97 837.264 834.471 837.264C831.044 837.264 829.134 838.412 828.884 840.088Z" fill="white"/>
<path d="M846.915 845.554V836.271H849.967V837.583H850.324C850.931 836.991 852.466 836.062 856.215 836.062C860.214 836.062 862.856 837.182 862.856 839.314V845.554H859.714V839.423C859.714 837.966 858.018 837.319 855.466 837.319C852.556 837.319 850.057 838.266 850.057 840.197V845.554H846.915Z" fill="white"/>
<path d="M866.85 840.917C866.85 837.902 870.26 836.053 875.776 836.053C880.953 836.053 883.22 837.656 883.559 839.031V839.305H880.596C880.382 838.394 879.078 837.301 875.794 837.301C872.259 837.301 870.028 838.612 870.028 840.917C870.028 843.212 872.241 844.524 875.794 844.524C879.132 844.524 880.382 843.486 880.703 842.429H883.648V842.702C883.291 844.151 881.024 845.772 875.776 845.772C870.224 845.772 866.85 843.923 866.85 840.917Z" fill="white"/>
<path d="M886.445 840.908C886.445 837.756 889.819 836.053 895.157 836.053C900.53 836.053 903.44 837.774 903.44 840.507V841.254H889.498C889.569 843.294 891.658 844.561 895.157 844.561C898.477 844.561 899.959 843.54 900.244 842.648H903.047V842.921C902.654 844.06 900.619 845.772 895.174 845.772C889.837 845.772 886.445 844.069 886.445 840.908ZM889.551 840.088H900.423C900.387 838.394 898.638 837.264 895.139 837.264C891.711 837.264 889.801 838.412 889.551 840.088Z" fill="white"/>
<path d="M906.779 838.731C906.779 837.046 909.564 836.062 914.062 836.062C918.579 836.062 921.364 837.1 921.721 838.676V838.949H918.811C918.668 837.756 916.865 837.237 914.116 837.237C911.42 837.237 909.778 837.765 909.778 838.667C909.778 839.578 911.313 839.897 913.223 840.061L916.151 840.307C919.757 840.616 922.31 841.227 922.31 842.948C922.31 844.688 919.632 845.772 914.741 845.772C909.831 845.772 906.85 844.688 906.404 842.994V842.721H909.349C909.564 843.95 911.724 844.597 914.741 844.597C917.758 844.597 919.311 843.95 919.311 843.049C919.311 842.11 917.722 841.791 915.419 841.6L912.491 841.354C909.171 841.063 906.779 840.343 906.779 838.731Z" fill="white"/>
<path d="M401.99 914.784V904.29H416.671V905.653H405.531V908.728H415.243V910.084H405.531V913.422H416.956V914.784H401.99Z" fill="white"/>
<path d="M418.877 907.475V907.256H422.333L425.989 909.807H426.275L429.917 907.256H433.344V907.475L428.203 910.958L433.587 914.566V914.784H430.116L426.232 912.103H425.946L422.076 914.784H418.634V914.566L424.018 910.958L418.877 907.475Z" fill="white"/>
<path d="M436.07 917.699V907.256H439.326V908.211H439.611C440.268 907.643 441.682 907.096 444.31 907.096C448.066 907.096 451.051 908.379 451.051 911.017C451.051 913.655 448.066 914.945 444.31 914.945C441.682 914.945 440.354 914.391 439.74 913.917H439.454V917.699H436.07ZM439.312 911.017C439.312 912.722 440.983 913.64 443.482 913.64C445.981 913.64 447.638 912.722 447.638 911.017C447.638 909.319 445.981 908.4 443.482 908.4C440.983 908.4 439.312 909.319 439.312 911.017Z" fill="white"/>
<path d="M454.033 914.784V904.29H457.418V914.784H454.033Z" fill="white"/>
<path d="M460.402 911.017C460.402 908.451 463.572 907.081 468.071 907.081C472.555 907.081 475.725 908.451 475.725 911.017C475.725 913.589 472.555 914.959 468.071 914.959C463.572 914.959 460.402 913.589 460.402 911.017ZM463.829 911.017C463.829 912.751 465.514 913.677 468.071 913.677C470.613 913.677 472.298 912.751 472.298 911.017C472.298 909.29 470.613 908.364 468.071 908.364C465.514 908.364 463.829 909.29 463.829 911.017Z" fill="white"/>
<path d="M478.69 914.784V907.256H481.947V908.364H482.232C482.846 907.628 484.103 907.023 487.102 907.183V908.641C484.117 908.451 482.075 908.918 482.075 910.776V914.784H478.69Z" fill="white"/>
<path d="M488.406 911.017C488.406 908.422 491.248 907.081 495.69 907.081C500.117 907.081 502.616 908.451 502.616 910.718V911.439H491.648C491.705 912.809 493.148 913.713 495.676 913.713C498.118 913.713 499.132 912.999 499.346 912.394H502.316V912.613C501.945 913.596 500.217 914.959 495.718 914.959C491.263 914.959 488.406 913.611 488.406 911.017ZM491.691 910.252H499.417C499.389 909.115 498.189 908.313 495.661 908.313C493.176 908.313 491.877 909.137 491.691 910.252Z" fill="white"/>
<path d="M535.986 913.603L534.433 912.811L549.072 905.333H535.763V904.195H552.871V912.924H550.639V906.133L535.986 913.603Z" fill="white"/>
<defs>
<radialGradient id="paint0_radial_214_7448" cx="0" cy="0" r="1" gradientUnits="userSpaceOnUse" gradientTransform="translate(1680 743.5) rotate(90) scale(705 1475.89)">
<stop stop-color="white"/>
<stop offset="1" stop-color="white" stop-opacity="0"/>
</radialGradient>
<radialGradient id="paint1_radial_214_7448" cx="0" cy="0" r="1" gradientUnits="userSpaceOnUse" gradientTransform="translate(1680 743.5) scale(1680 802.5)">
<stop stop-color="#4034EB"/>
<stop offset="1" stop-color="#4034EB" stop-opacity="0"/>
</radialGradient>
<radialGradient id="paint2_radial_214_7448" cx="0" cy="0" r="1" gradientUnits="userSpaceOnUse" gradientTransform="translate(1680 743.5) scale(1680 802.5)">
<stop stop-color="#4034EB"/>
<stop offset="1" stop-color="#4034EB" stop-opacity="0"/>
</radialGradient>
<radialGradient id="paint3_radial_214_7448" cx="0" cy="0" r="1" gradientUnits="userSpaceOnUse" gradientTransform="translate(1680 743.5) scale(1680 802.5)">
<stop stop-color="#4034EB"/>
<stop offset="1" stop-color="#4034EB" stop-opacity="0"/>
</radialGradient>
<radialGradient id="paint4_radial_214_7448" cx="0" cy="0" r="1" gradientUnits="userSpaceOnUse" gradientTransform="translate(1680 743.5) scale(1680 802.5)">
<stop stop-color="white"/>
<stop offset="1" stop-color="white" stop-opacity="0"/>
</radialGradient>
<radialGradient id="paint5_radial_214_7448" cx="0" cy="0" r="1" gradientUnits="userSpaceOnUse" gradientTransform="translate(1680 743.5) scale(1680 802.5)">
<stop stop-color="white"/>
<stop offset="1" stop-color="white" stop-opacity="0"/>
</radialGradient>
<linearGradient id="paint6_linear_214_7448" x1="1680" y1="-59" x2="1680" y2="1546" gradientUnits="userSpaceOnUse">
<stop stop-color="white"/>
<stop offset="1" stop-color="white" stop-opacity="0"/>
</linearGradient>
<linearGradient id="paint7_linear_214_7448" x1="1680" y1="-59" x2="1680" y2="1546" gradientUnits="userSpaceOnUse">
<stop stop-color="white"/>
<stop offset="1" stop-color="white" stop-opacity="0"/>
</linearGradient>
<radialGradient id="paint8_radial_214_7448" cx="0" cy="0" r="1" gradientUnits="userSpaceOnUse" gradientTransform="translate(1680 267.867) rotate(90) scale(1278.13 1832)">
<stop stop-color="white"/>
<stop offset="1" stop-color="white" stop-opacity="0"/>
</radialGradient>
<radialGradient id="paint9_radial_214_7448" cx="0" cy="0" r="1" gradientUnits="userSpaceOnUse" gradientTransform="translate(63.4125 20.5725) rotate(20.8658) scale(2905.02 1187.12)">
<stop stop-color="white"/>
<stop offset="1" stop-color="white" stop-opacity="0"/>
</radialGradient>
</defs>
</svg>
